<svg width="251" height="264" viewBox="0 0 251 264" fill="none" xmlns="http://www.w3.org/2000/svg">
<path d="M15.5008 257.216V244.956H5.66082L5.52082 249.456C5.38082 253.716 4.92082 257.096 3.00082 257.216H2.32082L2.30082 262.016H4.16082L4.18082 258.956H15.7008V262.016H17.5608V257.216H15.5008ZM7.28082 249.636L7.38082 246.696H13.5208V257.216H5.62082C6.82082 256.136 7.16082 253.056 7.28082 249.636ZM29.3207 253.716C29.3207 250.456 27.1407 248.256 24.0807 248.256C21.0207 248.256 18.7607 250.516 18.7607 253.656C18.7607 256.816 21.0407 259.076 24.4607 259.076C26.2207 259.076 27.6807 258.476 28.6407 257.356L27.5807 256.116C26.8007 256.976 25.7607 257.396 24.5207 257.396C22.4207 257.396 20.9207 256.156 20.6807 254.296H29.2807C29.3007 254.116 29.3207 253.876 29.3207 253.716ZM24.0807 249.876C25.9407 249.876 27.2807 251.136 27.4807 252.916H20.6807C20.8807 251.116 22.2407 249.876 24.0807 249.876ZM33.0835 248.356L32.9035 252.276C32.7635 254.776 32.6835 257.376 30.9635 257.376C30.8235 257.376 30.6635 257.356 30.4835 257.316L30.3635 258.936C30.8035 259.056 31.1835 259.116 31.5435 259.116C33.9435 259.116 34.4435 256.136 34.6235 252.396L34.7435 250.036H39.3035V258.956H41.2235V248.356H33.0835ZM48.716 248.256C47.016 248.256 45.436 248.736 44.336 249.616L45.136 251.056C45.956 250.356 47.236 249.916 48.496 249.916C50.396 249.916 51.336 250.856 51.336 252.476V252.856H48.296C45.136 252.856 44.036 254.256 44.036 255.956C44.036 257.796 45.556 259.076 47.956 259.076C49.616 259.076 50.796 258.516 51.436 257.556V258.956H53.256V252.556C53.256 249.656 51.616 248.256 48.716 248.256ZM48.276 257.596C46.816 257.596 45.936 256.936 45.936 255.876C45.936 254.976 46.476 254.236 48.376 254.236H51.336V255.716C50.856 256.936 49.716 257.596 48.276 257.596ZM66.2933 253.716C66.2933 250.456 64.1133 248.256 61.0533 248.256C57.9933 248.256 55.7333 250.516 55.7333 253.656C55.7333 256.816 58.0133 259.076 61.4333 259.076C63.1933 259.076 64.6533 258.476 65.6133 257.356L64.5533 256.116C63.7733 256.976 62.7333 257.396 61.4933 257.396C59.3933 257.396 57.8933 256.156 57.6533 254.296H66.2533C66.2733 254.116 66.2933 253.876 66.2933 253.716ZM61.0533 249.876C62.9133 249.876 64.2533 251.136 64.4533 252.916H57.6533C57.8533 251.116 59.2133 249.876 61.0533 249.876ZM79.6919 248.356L75.4119 255.516L71.2519 248.356H69.2719V258.956H71.0319V251.196L74.9519 257.756H75.7919L79.7519 251.216V258.956H81.4919V248.356H79.6919ZM99.76 257.276V248.356H91.54L91.38 251.936C91.24 254.616 90.98 257.196 89.46 257.276H88.9V261.416H90.72V258.956H99.58V261.416H101.38V257.276H99.76ZM93.14 252.076L93.24 250.036H97.84V257.276H91.9C92.86 256.436 93.06 254.276 93.14 252.076ZM103.881 258.956H105.641L112.121 251.236V258.956H114.041V248.356H112.301L105.801 256.076V248.356H103.881V258.956ZM121.548 248.256C119.848 248.256 118.268 248.736 117.168 249.616L117.968 251.056C118.788 250.356 120.068 249.916 121.328 249.916C123.228 249.916 124.168 250.856 124.168 252.476V252.856H121.128C117.968 252.856 116.868 254.256 116.868 255.956C116.868 257.796 118.388 259.076 120.788 259.076C122.448 259.076 123.628 258.516 124.268 257.556V258.956H126.088V252.556C126.088 249.656 124.448 248.256 121.548 248.256ZM121.108 257.596C119.648 257.596 118.768 256.936 118.768 255.876C118.768 254.976 119.308 254.236 121.208 254.236H124.168V255.716C123.688 256.936 122.548 257.596 121.108 257.596ZM137.345 248.356H129.545V258.956H131.465V250.036H137.345V248.356ZM139.311 258.956H141.231V254.516H147.271V258.956H149.191V248.356H147.271V252.856H141.231V248.356H139.311V258.956ZM157.464 259.076C160.644 259.076 162.964 256.816 162.964 253.656C162.964 250.496 160.644 248.256 157.464 248.256C154.284 248.256 151.944 250.496 151.944 253.656C151.944 256.816 154.284 259.076 157.464 259.076ZM157.464 257.396C155.424 257.396 153.884 255.916 153.884 253.656C153.884 251.396 155.424 249.936 157.464 249.936C159.504 249.936 161.024 251.396 161.024 253.656C161.024 255.916 159.504 257.396 157.464 257.396ZM170.357 259.076C172.257 259.076 173.837 258.276 174.677 256.796L173.217 255.876C172.537 256.916 171.497 257.396 170.337 257.396C168.257 257.396 166.697 255.956 166.697 253.656C166.697 251.396 168.257 249.936 170.337 249.936C171.497 249.936 172.537 250.416 173.217 251.456L174.677 250.516C173.837 249.036 172.257 248.256 170.357 248.256C167.097 248.256 164.757 250.496 164.757 253.656C164.757 256.816 167.097 259.076 170.357 259.076ZM184.926 248.356H175.246V250.036H179.126V258.956H181.046V250.036H184.926V248.356ZM186.889 258.956H188.649L195.129 251.236V258.956H197.049V248.356H195.309L188.809 256.076V248.356H186.889V258.956ZM208.456 258.956H210.716L206.416 253.456L210.436 248.356H208.376L204.936 252.836H202.696V248.356H200.776V258.956H202.696V254.476H204.896L208.456 258.956ZM219.703 248.356L216.043 256.836L212.343 248.356H210.343L215.023 258.936L214.683 259.676C214.163 260.896 213.583 261.316 212.663 261.316C211.943 261.316 211.283 261.036 210.763 260.536L209.943 261.976C210.603 262.616 211.643 262.956 212.663 262.956C214.283 262.956 215.503 262.256 216.443 260.016L221.583 248.356H219.703Z" fill="white" fill-opacity="0.5"/>
<path d="M8.37012 232.24C7.02612 232.24 5.82612 231.904 4.77012 231.232C3.71412 230.544 2.88212 229.552 2.27412 228.256C1.66612 226.944 1.36212 225.392 1.36212 223.6C1.36212 221.808 1.66612 220.264 2.27412 218.968C2.88212 217.656 3.71412 216.664 4.77012 215.992C5.82612 215.304 7.02612 214.96 8.37012 214.96C9.71412 214.96 10.9141 215.304 11.9701 215.992C13.0421 216.664 13.8821 217.656 14.4901 218.968C15.0981 220.264 15.4021 221.808 15.4021 223.6C15.4021 225.392 15.0981 226.944 14.4901 228.256C13.8821 229.552 13.0421 230.544 11.9701 231.232C10.9141 231.904 9.71412 232.24 8.37012 232.24ZM8.37012 229.528C9.57012 229.528 10.5141 229.032 11.2021 228.04C11.9061 227.048 12.2581 225.568 12.2581 223.6C12.2581 221.632 11.9061 220.152 11.2021 219.16C10.5141 218.168 9.57012 217.672 8.37012 217.672C7.18612 217.672 6.24212 218.168 5.53812 219.16C4.85012 220.152 4.50612 221.632 4.50612 223.6C4.50612 225.568 4.85012 227.048 5.53812 228.04C6.24212 229.032 7.18612 229.528 8.37012 229.528ZM29.5614 229.36V232H17.1774V229.912L23.8494 223.576C24.6014 222.856 25.1054 222.232 25.3614 221.704C25.6334 221.16 25.7694 220.624 25.7694 220.096C25.7694 219.312 25.5054 218.712 24.9774 218.296C24.4494 217.88 23.6734 217.672 22.6494 217.672C20.9374 217.672 19.6254 218.256 18.7134 219.424L16.5294 217.744C17.1854 216.864 18.0654 216.184 19.1694 215.704C20.2894 215.208 21.5374 214.96 22.9134 214.96C24.7374 214.96 26.1934 215.392 27.2814 216.256C28.3694 217.12 28.9134 218.296 28.9134 219.784C28.9134 220.696 28.7214 221.552 28.3374 222.352C27.9534 223.152 27.2174 224.064 26.1294 225.088L21.6414 229.36H29.5614Z" fill="white" fill-opacity="0.5"/>
<path d="M250.707 231.707C251.098 231.317 251.098 230.683 250.707 230.293L244.343 223.929C243.953 223.538 243.319 223.538 242.929 223.929C242.538 224.319 242.538 224.953 242.929 225.343L248.586 231L242.929 236.657C242.538 237.047 242.538 237.681 242.929 238.071C243.319 238.462 243.953 238.462 244.343 238.071L250.707 231.707ZM36.7347 232L250 232L250 230L36.7347 230L36.7347 232Z" fill="white" fill-opacity="0.5"/>
<path d="M111.836 137.68V124.286H39.7959V137.68C39.7959 139.457 40.4859 141.16 41.7141 142.416C42.9423 143.672 44.6081 144.378 46.345 144.378H105.287C107.024 144.378 108.689 143.672 109.917 142.416C111.146 141.16 111.836 139.457 111.836 137.68ZM79.0903 137.68H72.5413V130.983H79.0903V137.68Z" fill="white" fill-opacity="0.5"/>
<path d="M59.4431 151.074H92.1885V157.772H59.4431V151.074Z" fill="white" fill-opacity="0.5"/>
<path d="M111.836 17.1319C111.836 15.3558 111.146 13.6523 109.917 12.3964C108.689 11.1404 107.024 10.4348 105.287 10.4348H95.463V20.4805C95.463 21.3686 95.118 22.2203 94.5039 22.8483C93.8898 23.4763 93.0569 23.8291 92.1884 23.8291H59.4431C58.5747 23.8291 57.7418 23.4763 57.1277 22.8483C56.5136 22.2203 56.1686 21.3686 56.1686 20.4805V10.4348H46.345C44.6081 10.4348 42.9423 11.1404 41.7141 12.3964C40.4859 13.6523 39.7959 15.3558 39.7959 17.1319V117.589H111.836V17.1319ZM68.3073 86.4707L63.6771 81.7358L83.3243 61.6444L87.9545 66.3793L68.3073 86.4707ZM68.3073 69.7279L63.6771 64.993L83.3243 44.9016L87.9545 49.6365L68.3073 69.7279ZM92.1884 37.2233H85.6394V30.5262H92.1884V37.2233ZM105.287 37.2233H98.7375V30.5262H105.287V37.2233Z" fill="white" fill-opacity="0.5"/>
<path d="M128.208 197.954C130.814 197.954 133.312 196.896 135.155 195.012C136.997 193.128 138.032 190.573 138.032 187.909V43.9204C138.032 42.1442 138.722 40.4408 139.95 39.1848C141.178 37.9288 142.844 37.2233 144.581 37.2233H174.052C175.789 37.2233 177.454 37.9288 178.683 39.1848C179.911 40.4408 180.601 42.1442 180.601 43.9204V90.8003H187.15V40.5718C187.15 37.9075 186.115 35.3524 184.273 33.4684C182.43 31.5845 179.932 30.5261 177.326 30.5261H141.306C138.701 30.5261 136.202 31.5845 134.36 33.4684C132.518 35.3524 131.483 37.9075 131.483 40.5718V184.56C131.483 186.336 130.793 188.04 129.565 189.296C128.336 190.552 126.671 191.257 124.934 191.257H85.6394C83.9025 191.257 82.2367 190.552 81.0085 189.296C79.7803 188.04 79.0903 186.336 79.0903 184.56V164.469H72.5413V187.909C72.5413 190.573 73.5762 193.128 75.4185 195.012C77.2608 196.896 79.7595 197.954 82.3649 197.954H128.208Z" fill="white" fill-opacity="0.5"/>
<path d="M170.777 97.4976H196.974V104.195H170.777V97.4976Z" fill="white" fill-opacity="0.5"/>
<path d="M210.2 194.912V114.547C210.2 113.659 209.855 112.807 209.241 112.179C208.627 111.551 207.794 111.198 206.926 111.198H161.082C160.214 111.198 159.381 111.551 158.767 112.179C158.152 112.807 157.808 113.659 157.808 114.547V194.912C157.808 195.8 158.152 196.652 158.767 197.28C159.381 197.908 160.214 198.261 161.082 198.261H206.926C207.794 198.261 208.627 197.908 209.241 197.28C209.855 196.652 210.2 195.8 210.2 194.912ZM193.827 158.078H200.376V164.775H193.827V158.078ZM187.278 158.078V164.775H180.729V158.078H187.278ZM167.631 158.078H174.18V164.775H167.631V158.078ZM203.651 188.215C203.651 189.103 203.306 189.955 202.692 190.583C202.078 191.211 201.245 191.564 200.376 191.564H167.631C166.763 191.564 165.93 191.211 165.316 190.583C164.702 189.955 164.357 189.103 164.357 188.215V174.821C164.357 173.933 164.702 173.081 165.316 172.453C165.93 171.825 166.763 171.472 167.631 171.472H200.376C201.245 171.472 202.078 171.825 202.692 172.453C203.306 173.081 203.651 173.933 203.651 174.821V188.215Z" fill="white" fill-opacity="0.5"/>
<path d="M62.7176 10.4348H88.9139V17.1319H62.7176V10.4348Z" fill="white" fill-opacity="0.5"/>
<path d="M170.777 177.863H196.974V184.56H170.777V177.863Z" fill="white" fill-opacity="0.5"/>
</svg>
