<svg width="251" height="264" viewBox="0 0 251 264" fill="none" xmlns="http://www.w3.org/2000/svg">
<path d="M2.18 244.956V258.956H4.16V246.696H12.28V258.956H14.24V244.956H2.18ZM23.9058 248.256C22.3458 248.256 20.9858 248.856 20.1258 250.036V248.356H18.2858V262.836H20.2058V257.356C21.0858 258.496 22.4058 259.076 23.9058 259.076C27.0058 259.076 29.2658 256.916 29.2658 253.656C29.2658 250.416 27.0058 248.256 23.9058 248.256ZM23.7458 257.396C21.7258 257.396 20.1858 255.916 20.1858 253.656C20.1858 251.416 21.7258 249.936 23.7458 249.936C25.7858 249.936 27.3258 251.416 27.3258 253.656C27.3258 255.916 25.7858 257.396 23.7458 257.396ZM32.0553 258.956H33.8153L40.2953 251.236V258.956H42.2153V248.356H40.4753L33.9753 256.076V248.356H32.0553V258.956ZM45.942 258.956H47.862V254.516H53.902V258.956H55.822V248.356H53.902V252.856H47.862V248.356H45.942V258.956ZM59.5553 258.956H61.3153L67.7953 251.236V258.956H69.7153V248.356H67.9753L61.4753 256.076V248.356H59.5553V258.956ZM83.862 248.356L79.582 255.516L75.422 248.356H73.442V258.956H75.202V251.196L79.122 257.756H79.962L83.922 251.216V258.956H85.662V248.356H83.862ZM93.1791 248.256C91.4791 248.256 89.8991 248.736 88.7991 249.616L89.5991 251.056C90.4191 250.356 91.6991 249.916 92.9591 249.916C94.8591 249.916 95.7991 250.856 95.7991 252.476V252.856H92.7591C89.5991 252.856 88.4991 254.256 88.4991 255.956C88.4991 257.796 90.0191 259.076 92.4191 259.076C94.0791 259.076 95.2591 258.516 95.8991 257.556V258.956H97.7191V252.556C97.7191 249.656 96.0791 248.256 93.1791 248.256ZM92.7391 257.596C91.2791 257.596 90.3991 256.936 90.3991 255.876C90.3991 254.976 90.9391 254.236 92.8391 254.236H95.7991V255.716C95.3191 256.936 94.1791 257.596 92.7391 257.596ZM110.756 253.716C110.756 250.456 108.576 248.256 105.516 248.256C102.456 248.256 100.196 250.516 100.196 253.656C100.196 256.816 102.476 259.076 105.896 259.076C107.656 259.076 109.116 258.476 110.076 257.356L109.016 256.116C108.236 256.976 107.196 257.396 105.956 257.396C103.856 257.396 102.356 256.156 102.116 254.296H110.716C110.736 254.116 110.756 253.876 110.756 253.716ZM105.516 249.876C107.376 249.876 108.716 251.136 108.916 252.916H102.116C102.316 251.116 103.676 249.876 105.516 249.876ZM124.155 248.356L119.875 255.516L115.715 248.356H113.735V258.956H115.495V251.196L119.415 257.756H120.255L124.215 251.216V258.956H125.955V248.356H124.155ZM142.643 248.356L138.983 256.836L135.283 248.356H133.283L137.963 258.936L137.623 259.676C137.103 260.896 136.523 261.316 135.603 261.316C134.883 261.316 134.223 261.036 133.703 260.536L132.883 261.976C133.543 262.616 134.583 262.956 135.603 262.956C137.223 262.956 138.443 262.256 139.383 260.016L144.523 248.356H142.643ZM150.816 259.076C152.716 259.076 154.296 258.276 155.136 256.796L153.676 255.876C152.996 256.916 151.956 257.396 150.796 257.396C148.716 257.396 147.156 255.956 147.156 253.656C147.156 251.396 148.716 249.936 150.796 249.936C151.956 249.936 152.996 250.416 153.676 251.456L155.136 250.516C154.296 249.036 152.716 248.256 150.816 248.256C147.556 248.256 145.216 250.496 145.216 253.656C145.216 256.816 147.556 259.076 150.816 259.076ZM165.385 248.356H155.705V250.036H159.585V258.956H161.505V250.036H165.385V248.356ZM172.968 248.256C171.408 248.256 170.048 248.856 169.188 250.036V248.356H167.348V262.836H169.268V257.356C170.148 258.496 171.468 259.076 172.968 259.076C176.068 259.076 178.328 256.916 178.328 253.656C178.328 250.416 176.068 248.256 172.968 248.256ZM172.808 257.396C170.788 257.396 169.248 255.916 169.248 253.656C169.248 251.416 170.788 249.936 172.808 249.936C174.848 249.936 176.388 251.416 176.388 253.656C176.388 255.916 174.848 257.396 172.808 257.396ZM185.658 259.076C188.838 259.076 191.158 256.816 191.158 253.656C191.158 250.496 188.838 248.256 185.658 248.256C182.478 248.256 180.138 250.496 180.138 253.656C180.138 256.816 182.478 259.076 185.658 259.076ZM185.658 257.396C183.618 257.396 182.078 255.916 182.078 253.656C182.078 251.396 183.618 249.936 185.658 249.936C187.698 249.936 189.218 251.396 189.218 253.656C189.218 255.916 187.698 257.396 185.658 257.396ZM198.89 246.976C200.83 246.976 202.01 246.016 202.05 244.216H200.71C200.69 245.216 199.97 245.856 198.87 245.856C197.79 245.856 197.07 245.216 197.05 244.216H195.75C195.77 246.016 196.95 246.976 198.89 246.976ZM193.93 258.956H195.69L202.17 251.236V258.956H204.09V248.356H202.35L195.85 256.076V248.356H193.93V258.956ZM212.437 259.076C214.337 259.076 215.917 258.276 216.757 256.796L215.297 255.876C214.617 256.916 213.577 257.396 212.417 257.396C210.337 257.396 208.777 255.956 208.777 253.656C208.777 251.396 210.337 249.936 212.417 249.936C213.577 249.936 214.617 250.416 215.297 251.456L216.757 250.516C215.917 249.036 214.337 248.256 212.437 248.256C209.177 248.256 206.837 250.496 206.837 253.656C206.837 256.816 209.177 259.076 212.437 259.076ZM226.463 253.456C227.523 253.036 228.163 252.216 228.163 251.076C228.163 249.336 226.663 248.356 224.163 248.356H219.243V258.956H224.343C227.163 258.956 228.523 257.876 228.523 256.036C228.523 254.696 227.863 253.816 226.463 253.456ZM221.123 249.836H224.003C225.463 249.836 226.243 250.336 226.243 251.356C226.243 252.376 225.463 252.916 224.003 252.916H221.123V249.836ZM224.203 257.476H221.123V254.296H224.323C225.903 254.296 226.603 254.816 226.603 255.916C226.603 256.996 225.783 257.476 224.203 257.476ZM236.068 259.076C239.248 259.076 241.568 256.816 241.568 253.656C241.568 250.496 239.248 248.256 236.068 248.256C232.888 248.256 230.548 250.496 230.548 253.656C230.548 256.816 232.888 259.076 236.068 259.076ZM236.068 257.396C234.028 257.396 232.488 255.916 232.488 253.656C232.488 251.396 234.028 249.936 236.068 249.936C238.108 249.936 239.628 251.396 239.628 253.656C239.628 255.916 238.108 257.396 236.068 257.396Z" fill="white" fill-opacity="0.5"/>
<path d="M8.85255 232.24C7.50855 232.24 6.30855 231.904 5.25255 231.232C4.19655 230.544 3.36455 229.552 2.75655 228.256C2.14855 226.944 1.84455 225.392 1.84455 223.6C1.84455 221.808 2.14855 220.264 2.75655 218.968C3.36455 217.656 4.19655 216.664 5.25255 215.992C6.30855 215.304 7.50855 214.96 8.85255 214.96C10.1965 214.96 11.3965 215.304 12.4525 215.992C13.5245 216.664 14.3645 217.656 14.9725 218.968C15.5805 220.264 15.8845 221.808 15.8845 223.6C15.8845 225.392 15.5805 226.944 14.9725 228.256C14.3645 229.552 13.5245 230.544 12.4525 231.232C11.3965 231.904 10.1965 232.24 8.85255 232.24ZM8.85255 229.528C10.0525 229.528 10.9965 229.032 11.6845 228.04C12.3885 227.048 12.7405 225.568 12.7405 223.6C12.7405 221.632 12.3885 220.152 11.6845 219.16C10.9965 218.168 10.0525 217.672 8.85255 217.672C7.66855 217.672 6.72455 218.168 6.02055 219.16C5.33255 220.152 4.98855 221.632 4.98855 223.6C4.98855 225.568 5.33255 227.048 6.02055 228.04C6.72455 229.032 7.66855 229.528 8.85255 229.528ZM23.6838 215.2V232H20.5638V217.816H17.0118V215.2H23.6838Z" fill="white" fill-opacity="0.5"/>
<path d="M250.707 231.707C251.098 231.317 251.098 230.683 250.707 230.293L244.343 223.929C243.953 223.538 243.319 223.538 242.929 223.929C242.538 224.319 242.538 224.953 242.929 225.343L248.586 231L242.929 236.657C242.538 237.047 242.538 237.681 242.929 238.071C243.319 238.462 243.953 238.462 244.343 238.071L250.707 231.707ZM34.9794 232L250 232L250 230L34.9794 230L34.9794 232Z" fill="white" fill-opacity="0.5"/>
<path d="M78.1893 188.199C78.1893 190.868 79.2345 193.427 81.095 195.314C82.9555 197.201 85.4788 198.261 88.11 198.261H160.861C163.492 198.261 166.016 197.201 167.876 195.314C169.737 193.427 170.782 190.868 170.782 188.199V171.429H78.1893V188.199ZM124.486 178.137C125.794 178.137 127.072 178.53 128.16 179.267C129.248 180.004 130.095 181.052 130.596 182.278C131.097 183.504 131.227 184.852 130.972 186.154C130.717 187.455 130.087 188.65 129.162 189.588C128.237 190.526 127.059 191.165 125.776 191.424C124.493 191.683 123.163 191.55 121.955 191.042C120.746 190.535 119.713 189.675 118.986 188.572C118.26 187.469 117.872 186.172 117.872 184.845C117.872 183.066 118.569 181.36 119.809 180.102C121.049 178.844 122.732 178.137 124.486 178.137Z" fill="white" fill-opacity="0.5"/>
<path d="M141.02 10.4348H107.951V17.1429H141.02V10.4348Z" fill="white" fill-opacity="0.5"/>
<path d="M124.486 60.7454C117.945 60.7454 111.552 62.7125 106.114 66.3979C100.675 70.0834 96.437 75.3217 93.9341 81.4504C91.4312 87.5791 90.7763 94.3229 92.0523 100.829C93.3282 107.335 96.4777 113.312 101.102 118.002C105.727 122.693 111.62 125.887 118.034 127.182C124.449 128.476 131.098 127.812 137.141 125.273C143.183 122.734 148.348 118.435 151.981 112.92C155.615 107.404 157.554 100.919 157.554 94.2857C157.545 85.3933 154.058 76.8678 147.858 70.5799C141.659 64.292 133.253 60.7551 124.486 60.7454ZM102.306 83.2409L106.982 78.4983L111.258 82.835L115.534 78.4983L120.21 83.2409L115.934 87.5777L120.21 91.9144L115.534 96.657L111.258 92.3203L106.982 96.657L102.306 91.9144L106.582 87.5777L102.306 83.2409ZM137.882 115.47C137.783 115.181 135.025 107.702 124.486 107.702C113.765 107.702 111.116 115.393 111.089 115.47L104.806 113.35C104.975 112.844 109.052 100.994 124.486 100.994C139.919 100.994 143.996 112.844 144.158 113.35L137.882 115.47ZM146.665 91.9144L141.989 96.657L137.713 92.3203L133.437 96.657L128.761 91.9144L133.037 87.5777L128.761 83.2409L133.437 78.4983L137.713 82.835L141.989 78.4983L146.665 83.2409L142.389 87.5777L146.665 91.9144Z" fill="white" fill-opacity="0.5"/>
<path d="M160.861 10.4348H147.634V20.4969C147.634 21.3865 147.285 22.2396 146.665 22.8686C146.045 23.4976 145.204 23.851 144.327 23.851H104.644C103.767 23.851 102.926 23.4976 102.306 22.8686C101.686 22.2396 101.337 21.3865 101.337 20.4969V10.4348H88.11C85.4788 10.4348 82.9555 11.4949 81.095 13.3819C79.2345 15.269 78.1893 17.8283 78.1893 20.4969V29.1705L88.11 39.2326L95.6926 31.5418C96.3128 30.913 97.1537 30.5598 98.0306 30.5598C98.9075 30.5598 99.7484 30.913 100.369 31.5418L113.596 44.9579L108.92 49.7005L98.0306 38.6557L90.4479 46.3465C89.8278 46.9753 88.9868 47.3285 88.11 47.3285C87.2331 47.3285 86.3921 46.9753 85.772 46.3465L78.1893 38.6557V164.721H170.782V159.401L160.861 149.339L153.279 157.03C152.658 157.658 151.818 158.012 150.941 158.012C150.064 158.012 149.223 157.658 148.603 157.03L135.375 143.614L140.051 138.871L150.941 149.916L158.523 142.225C159.143 141.596 159.984 141.243 160.861 141.243C161.738 141.243 162.579 141.596 163.199 142.225L170.782 149.916V20.4969C170.782 17.8283 169.737 15.269 167.876 13.3819C166.016 11.4949 163.492 10.4348 160.861 10.4348ZM124.486 134.534C116.637 134.534 108.965 132.174 102.439 127.751C95.9134 123.329 90.8272 117.043 87.8237 109.688C84.8203 102.334 84.0344 94.2411 85.5656 86.4337C87.0967 78.6262 90.8761 71.4546 96.4258 65.8258C101.976 60.1969 109.046 56.3637 116.744 54.8107C124.442 53.2577 132.42 54.0547 139.671 57.101C146.923 60.1473 153.12 65.3061 157.48 71.9249C161.841 78.5437 164.168 86.3253 164.168 94.2857C164.157 104.957 159.972 115.187 152.533 122.733C145.093 130.278 135.007 134.523 124.486 134.534Z" fill="white" fill-opacity="0.5"/>
</svg>
