<svg width="249" height="253" viewBox="0 0 249 253" fill="none" xmlns="http://www.w3.org/2000/svg">
<path d="M13.9 240.74C15.26 240.22 16.08 239.14 16.08 237.6C16.08 235.26 14.24 234 11.2 234H5.18V248H11.58C15.02 248 16.78 246.58 16.78 244.18C16.78 242.36 15.78 241.2 13.9 240.74ZM7.16 235.58H11.06C12.98 235.58 14.06 236.38 14.06 237.88C14.06 239.38 12.98 240.16 11.06 240.16H7.16V235.58ZM11.54 246.42H7.16V241.68H11.54C13.64 241.68 14.76 242.4 14.76 244.02C14.76 245.66 13.64 246.42 11.54 246.42ZM24.3414 248.12C27.5214 248.12 29.8414 245.86 29.8414 242.7C29.8414 239.54 27.5214 237.3 24.3414 237.3C21.1614 237.3 18.8214 239.54 18.8214 242.7C18.8214 245.86 21.1614 248.12 24.3414 248.12ZM24.3414 246.44C22.3014 246.44 20.7614 244.96 20.7614 242.7C20.7614 240.44 22.3014 238.98 24.3414 238.98C26.3814 238.98 27.9014 240.44 27.9014 242.7C27.9014 244.96 26.3814 246.44 24.3414 246.44ZM38.2367 242.48C39.3967 242.06 40.1567 241.2 40.1567 240.14C40.1567 238.42 38.2567 237.26 35.6767 237.26C34.3167 237.26 32.9967 237.54 31.6167 238.24L32.1367 239.72C33.2967 239.18 34.3967 238.9 35.4767 238.9C37.0967 238.9 38.1767 239.46 38.1767 240.42C38.1767 241.32 37.2767 241.84 35.8567 241.84H34.0567V243.22H35.9967C37.5567 243.22 38.4767 243.78 38.4767 244.76C38.4767 245.84 37.2967 246.5 35.4967 246.5C34.1967 246.5 32.7967 246.14 31.7767 245.48L31.1967 246.94C32.3767 247.7 33.9367 248.14 35.5167 248.14C38.3367 248.14 40.4567 246.84 40.4567 244.92C40.4567 243.7 39.6567 242.84 38.2367 242.48ZM50.5956 242.5C51.6556 242.08 52.2956 241.26 52.2956 240.12C52.2956 238.38 50.7956 237.4 48.2956 237.4H43.3756V248H48.4756C51.2956 248 52.6556 246.92 52.6556 245.08C52.6556 243.74 51.9956 242.86 50.5956 242.5ZM45.2556 238.88H48.1356C49.5956 238.88 50.3756 239.38 50.3756 240.4C50.3756 241.42 49.5956 241.96 48.1356 241.96H45.2556V238.88ZM48.3356 246.52H45.2556V243.34H48.4556C50.0356 243.34 50.7356 243.86 50.7356 244.96C50.7356 246.04 49.9156 246.52 48.3356 246.52ZM61.2808 237.3C59.7208 237.3 58.3608 237.9 57.5008 239.08V237.4H55.6608V251.88H57.5808V246.4C58.4608 247.54 59.7808 248.12 61.2808 248.12C64.3808 248.12 66.6408 245.96 66.6408 242.7C66.6408 239.46 64.3808 237.3 61.2808 237.3ZM61.1208 246.44C59.1008 246.44 57.5608 244.96 57.5608 242.7C57.5608 240.46 59.1008 238.98 61.1208 238.98C63.1608 238.98 64.7008 240.46 64.7008 242.7C64.7008 244.96 63.1608 246.44 61.1208 246.44ZM73.1127 237.3C71.4127 237.3 69.8327 237.78 68.7327 238.66L69.5327 240.1C70.3527 239.4 71.6327 238.96 72.8927 238.96C74.7927 238.96 75.7327 239.9 75.7327 241.52V241.9H72.6927C69.5327 241.9 68.4327 243.3 68.4327 245C68.4327 246.84 69.9527 248.12 72.3527 248.12C74.0127 248.12 75.1927 247.56 75.8327 246.6V248H77.6527V241.6C77.6527 238.7 76.0127 237.3 73.1127 237.3ZM72.6727 246.64C71.2127 246.64 70.3327 245.98 70.3327 244.92C70.3327 244.02 70.8727 243.28 72.7727 243.28H75.7327V244.76C75.2527 245.98 74.1127 246.64 72.6727 246.64ZM96.21 246.32V237.4H94.29V246.32H89.63V237.4H87.71V246.32H83.03V237.4H81.11V248H95.99V250.26H97.79V246.32H96.21ZM103.718 237.3C102.018 237.3 100.438 237.78 99.3381 238.66L100.138 240.1C100.958 239.4 102.238 238.96 103.498 238.96C105.398 238.96 106.338 239.9 106.338 241.52V241.9H103.298C100.138 241.9 99.0381 243.3 99.0381 245C99.0381 246.84 100.558 248.12 102.958 248.12C104.618 248.12 105.798 247.56 106.438 246.6V248H108.258V241.6C108.258 238.7 106.618 237.3 103.718 237.3ZM103.278 246.64C101.818 246.64 100.938 245.98 100.938 244.92C100.938 244.02 101.478 243.28 103.378 243.28H106.338V244.76C105.858 245.98 104.718 246.64 103.278 246.64ZM121.295 242.76C121.295 239.5 119.115 237.3 116.055 237.3C112.995 237.3 110.735 239.56 110.735 242.7C110.735 245.86 113.015 248.12 116.435 248.12C118.195 248.12 119.655 247.52 120.615 246.4L119.555 245.16C118.775 246.02 117.735 246.44 116.495 246.44C114.395 246.44 112.895 245.2 112.655 243.34H121.255C121.275 243.16 121.295 242.92 121.295 242.76ZM116.055 238.92C117.915 238.92 119.255 240.18 119.455 241.96H112.655C112.855 240.16 114.215 238.92 116.055 238.92ZM134.694 237.4L130.414 244.56L126.254 237.4H124.274V248H126.034V240.24L129.954 246.8H130.794L134.754 240.26V248H136.494V237.4H134.694Z" fill="white" fill-opacity="0.5"/>
<path d="M8.34525 223.24C7.00125 223.24 5.80125 222.904 4.74525 222.232C3.68925 221.544 2.85725 220.552 2.24925 219.256C1.64125 217.944 1.33725 216.392 1.33725 214.6C1.33725 212.808 1.64125 211.264 2.24925 209.968C2.85725 208.656 3.68925 207.664 4.74525 206.992C5.80125 206.304 7.00125 205.96 8.34525 205.96C9.68925 205.96 10.8893 206.304 11.9453 206.992C13.0173 207.664 13.8573 208.656 14.4653 209.968C15.0733 211.264 15.3773 212.808 15.3773 214.6C15.3773 216.392 15.0733 217.944 14.4653 219.256C13.8573 220.552 13.0173 221.544 11.9453 222.232C10.8893 222.904 9.68925 223.24 8.34525 223.24ZM8.34525 220.528C9.54525 220.528 10.4893 220.032 11.1773 219.04C11.8813 218.048 12.2333 216.568 12.2333 214.6C12.2333 212.632 11.8813 211.152 11.1773 210.16C10.4893 209.168 9.54525 208.672 8.34525 208.672C7.16125 208.672 6.21725 209.168 5.51325 210.16C4.82525 211.152 4.48125 212.632 4.48125 214.6C4.48125 216.568 4.82525 218.048 5.51325 219.04C6.21725 220.032 7.16125 220.528 8.34525 220.528ZM32.4617 219.184H29.4857V223H26.4617V219.184H17.2457V217.024L25.5257 206.2H28.8617L21.0617 216.544H26.5577V213.16H29.4857V216.544H32.4617V219.184Z" fill="white" fill-opacity="0.5"/>
<line x1="40" y1="222" x2="249" y2="222" stroke="white" stroke-opacity="0.5" stroke-width="2"/>
<path d="M145.25 22.8572H100.25V83.9286H145.25V22.8572ZM105.875 29.2857H111.5V35.7143H105.875V29.2857ZM119.428 72.9132C119.193 73.298 118.887 73.619 118.531 73.8539C118.175 74.0888 117.779 74.2318 117.37 74.2729C117.288 74.282 117.207 74.2863 117.125 74.2857C116.379 74.2856 115.664 73.9468 115.137 73.344L106.699 63.7011L110.676 59.1561L116.743 66.0893L134.509 37.0868L139.116 40.7704L119.428 72.9132Z" fill="white" fill-opacity="0.5"/>
<path d="M103.062 103.214H142.438C143.183 103.214 143.899 102.876 144.426 102.273C144.954 101.67 145.25 100.853 145.25 100V90.3572H100.25V100C100.25 100.853 100.546 101.67 101.074 102.273C101.601 102.876 102.317 103.214 103.062 103.214Z" fill="white" fill-opacity="0.5"/>
<path d="M145.25 13.2143C145.25 12.3618 144.954 11.5442 144.426 10.9414C143.899 10.3386 143.183 10 142.438 10H103.062C102.317 10 101.601 10.3386 101.074 10.9414C100.546 11.5442 100.25 12.3618 100.25 13.2143V16.4286H145.25V13.2143Z" fill="white" fill-opacity="0.5"/>
<path d="M44 125.714H49.625V170.714H44V125.714Z" fill="white" fill-opacity="0.5"/>
<path d="M55.25 119.286H66.5V177.143H55.25V119.286Z" fill="white" fill-opacity="0.5"/>
<path d="M195.875 125.714H201.5V170.714H195.875V125.714Z" fill="white" fill-opacity="0.5"/>
<path d="M179 119.286H190.25V177.143H179V119.286Z" fill="white" fill-opacity="0.5"/>
<path d="M157.664 164.286H173.375V132.143H162.125C161.823 132.142 161.523 132.086 161.236 131.976L136.357 122.5H101.414L81.7269 145H96.2731L106.699 133.085C107.226 132.482 107.942 132.143 108.688 132.143H128.375C128.984 132.143 129.576 132.368 130.062 132.786L141.312 142.429L137.938 147.571L127.438 138.571H109.852L99.4259 150.487C98.8986 151.09 98.1834 151.428 97.4375 151.429H74.9375C74.3813 151.428 73.8377 151.24 73.3753 150.887C72.9129 150.533 72.5525 150.031 72.3397 149.444C72.1268 148.857 72.0711 148.211 72.1796 147.587C72.2881 146.964 72.5558 146.391 72.9491 145.942L87.8356 128.929H72.125V167.5H91.8125C92.5584 167.5 93.2736 167.839 93.8009 168.442L112.664 190H121.586L103.887 169.772L107.863 165.227L123.914 183.571H132.836L115.137 163.344L119.113 158.799L135.164 177.143H144.086L126.387 156.915L130.363 152.37L146.414 170.714H155.336L143.262 156.915L147.238 152.37L157.664 164.286Z" fill="white" fill-opacity="0.5"/>
</svg>
