<svg width="244" height="253" viewBox="0 0 244 253" fill="none" xmlns="http://www.w3.org/2000/svg">
<path d="M2.18 234V248H4.16V235.74H12.28V248H14.24V234H2.18ZM23.9058 237.3C22.3458 237.3 20.9858 237.9 20.1258 239.08V237.4H18.2858V251.88H20.2058V246.4C21.0858 247.54 22.4058 248.12 23.9058 248.12C27.0058 248.12 29.2658 245.96 29.2658 242.7C29.2658 239.46 27.0058 237.3 23.9058 237.3ZM23.7458 246.44C21.7258 246.44 20.1858 244.96 20.1858 242.7C20.1858 240.46 21.7258 238.98 23.7458 238.98C25.7858 238.98 27.3258 240.46 27.3258 242.7C27.3258 244.96 25.7858 246.44 23.7458 246.44ZM32.0553 248H33.8153L40.2953 240.28V248H42.2153V237.4H40.4753L33.9753 245.12V237.4H32.0553V248ZM45.942 248H47.862V243.56H53.902V248H55.822V237.4H53.902V241.9H47.862V237.4H45.942V248ZM59.5553 248H61.3153L67.7953 240.28V248H69.7153V237.4H67.9753L61.4753 245.12V237.4H59.5553V248ZM83.862 237.4L79.582 244.56L75.422 237.4H73.442V248H75.202V240.24L79.122 246.8H79.962L83.922 240.26V248H85.662V237.4H83.862ZM93.1791 237.3C91.4791 237.3 89.8991 237.78 88.7991 238.66L89.5991 240.1C90.4191 239.4 91.6991 238.96 92.9591 238.96C94.8591 238.96 95.7991 239.9 95.7991 241.52V241.9H92.7591C89.5991 241.9 88.4991 243.3 88.4991 245C88.4991 246.84 90.0191 248.12 92.4191 248.12C94.0791 248.12 95.2591 247.56 95.8991 246.6V248H97.7191V241.6C97.7191 238.7 96.0791 237.3 93.1791 237.3ZM92.7391 246.64C91.2791 246.64 90.3991 245.98 90.3991 244.92C90.3991 244.02 90.9391 243.28 92.8391 243.28H95.7991V244.76C95.3191 245.98 94.1791 246.64 92.7391 246.64ZM110.756 242.76C110.756 239.5 108.576 237.3 105.516 237.3C102.456 237.3 100.196 239.56 100.196 242.7C100.196 245.86 102.476 248.12 105.896 248.12C107.656 248.12 109.116 247.52 110.076 246.4L109.016 245.16C108.236 246.02 107.196 246.44 105.956 246.44C103.856 246.44 102.356 245.2 102.116 243.34H110.716C110.736 243.16 110.756 242.92 110.756 242.76ZM105.516 238.92C107.376 238.92 108.716 240.18 108.916 241.96H102.116C102.316 240.16 103.676 238.92 105.516 238.92ZM124.155 237.4L119.875 244.56L115.715 237.4H113.735V248H115.495V240.24L119.415 246.8H120.255L124.215 240.26V248H125.955V237.4H124.155ZM142.643 237.4L138.983 245.88L135.283 237.4H133.283L137.963 247.98L137.623 248.72C137.103 249.94 136.523 250.36 135.603 250.36C134.883 250.36 134.223 250.08 133.703 249.58L132.883 251.02C133.543 251.66 134.583 252 135.603 252C137.223 252 138.443 251.3 139.383 249.06L144.523 237.4H142.643ZM150.816 248.12C152.716 248.12 154.296 247.32 155.136 245.84L153.676 244.92C152.996 245.96 151.956 246.44 150.796 246.44C148.716 246.44 147.156 245 147.156 242.7C147.156 240.44 148.716 238.98 150.796 238.98C151.956 238.98 152.996 239.46 153.676 240.5L155.136 239.56C154.296 238.08 152.716 237.3 150.816 237.3C147.556 237.3 145.216 239.54 145.216 242.7C145.216 245.86 147.556 248.12 150.816 248.12ZM165.385 237.4H155.705V239.08H159.585V248H161.505V239.08H165.385V237.4ZM172.968 237.3C171.408 237.3 170.048 237.9 169.188 239.08V237.4H167.348V251.88H169.268V246.4C170.148 247.54 171.468 248.12 172.968 248.12C176.068 248.12 178.328 245.96 178.328 242.7C178.328 239.46 176.068 237.3 172.968 237.3ZM172.808 246.44C170.788 246.44 169.248 244.96 169.248 242.7C169.248 240.46 170.788 238.98 172.808 238.98C174.848 238.98 176.388 240.46 176.388 242.7C176.388 244.96 174.848 246.44 172.808 246.44ZM185.658 248.12C188.838 248.12 191.158 245.86 191.158 242.7C191.158 239.54 188.838 237.3 185.658 237.3C182.478 237.3 180.138 239.54 180.138 242.7C180.138 245.86 182.478 248.12 185.658 248.12ZM185.658 246.44C183.618 246.44 182.078 244.96 182.078 242.7C182.078 240.44 183.618 238.98 185.658 238.98C187.698 238.98 189.218 240.44 189.218 242.7C189.218 244.96 187.698 246.44 185.658 246.44ZM198.89 236.02C200.83 236.02 202.01 235.06 202.05 233.26H200.71C200.69 234.26 199.97 234.9 198.87 234.9C197.79 234.9 197.07 234.26 197.05 233.26H195.75C195.77 235.06 196.95 236.02 198.89 236.02ZM193.93 248H195.69L202.17 240.28V248H204.09V237.4H202.35L195.85 245.12V237.4H193.93V248ZM212.437 248.12C214.337 248.12 215.917 247.32 216.757 245.84L215.297 244.92C214.617 245.96 213.577 246.44 212.417 246.44C210.337 246.44 208.777 245 208.777 242.7C208.777 240.44 210.337 238.98 212.417 238.98C213.577 238.98 214.617 239.46 215.297 240.5L216.757 239.56C215.917 238.08 214.337 237.3 212.437 237.3C209.177 237.3 206.837 239.54 206.837 242.7C206.837 245.86 209.177 248.12 212.437 248.12ZM226.463 242.5C227.523 242.08 228.163 241.26 228.163 240.12C228.163 238.38 226.663 237.4 224.163 237.4H219.243V248H224.343C227.163 248 228.523 246.92 228.523 245.08C228.523 243.74 227.863 242.86 226.463 242.5ZM221.123 238.88H224.003C225.463 238.88 226.243 239.38 226.243 240.4C226.243 241.42 225.463 241.96 224.003 241.96H221.123V238.88ZM224.203 246.52H221.123V243.34H224.323C225.903 243.34 226.603 243.86 226.603 244.96C226.603 246.04 225.783 246.52 224.203 246.52ZM236.068 248.12C239.248 248.12 241.568 245.86 241.568 242.7C241.568 239.54 239.248 237.3 236.068 237.3C232.888 237.3 230.548 239.54 230.548 242.7C230.548 245.86 232.888 248.12 236.068 248.12ZM236.068 246.44C234.028 246.44 232.488 244.96 232.488 242.7C232.488 240.44 234.028 238.98 236.068 238.98C238.108 238.98 239.628 240.44 239.628 242.7C239.628 244.96 238.108 246.44 236.068 246.44Z" fill="white" fill-opacity="0.5"/>
<path d="M8.47806 223.24C7.13406 223.24 5.93406 222.904 4.87806 222.232C3.82206 221.544 2.99006 220.552 2.38206 219.256C1.77406 217.944 1.47006 216.392 1.47006 214.6C1.47006 212.808 1.77406 211.264 2.38206 209.968C2.99006 208.656 3.82206 207.664 4.87806 206.992C5.93406 206.304 7.13406 205.96 8.47806 205.96C9.82206 205.96 11.0221 206.304 12.0781 206.992C13.1501 207.664 13.9901 208.656 14.5981 209.968C15.2061 211.264 15.5101 212.808 15.5101 214.6C15.5101 216.392 15.2061 217.944 14.5981 219.256C13.9901 220.552 13.1501 221.544 12.0781 222.232C11.0221 222.904 9.82206 223.24 8.47806 223.24ZM8.47806 220.528C9.67806 220.528 10.6221 220.032 11.3101 219.04C12.0141 218.048 12.3661 216.568 12.3661 214.6C12.3661 212.632 12.0141 211.152 11.3101 210.16C10.6221 209.168 9.67806 208.672 8.47806 208.672C7.29406 208.672 6.35006 209.168 5.64606 210.16C4.95806 211.152 4.61406 212.632 4.61406 214.6C4.61406 216.568 4.95806 218.048 5.64606 219.04C6.35006 220.032 7.29406 220.528 8.47806 220.528ZM23.3093 206.2V223H20.1893V208.816H16.6373V206.2H23.3093Z" fill="white" fill-opacity="0.5"/>
<path d="M243.707 222.707C244.098 222.317 244.098 221.683 243.707 221.293L237.343 214.929C236.953 214.538 236.319 214.538 235.929 214.929C235.538 215.319 235.538 215.953 235.929 216.343L241.586 222L235.929 227.657C235.538 228.047 235.538 228.681 235.929 229.071C236.319 229.462 236.953 229.462 237.343 229.071L243.707 222.707ZM34 223L243 223L243 221L34 221L34 223Z" fill="white" fill-opacity="0.5"/>
<path d="M76 180.357C76 182.915 77.0159 185.367 78.8243 187.176C80.6327 188.984 83.0854 190 85.6429 190H156.357C158.915 190 161.367 188.984 163.176 187.176C164.984 185.367 166 182.915 166 180.357V164.286H76V180.357ZM121 170.714C122.271 170.714 123.514 171.091 124.572 171.798C125.629 172.504 126.453 173.508 126.939 174.683C127.426 175.857 127.553 177.15 127.305 178.397C127.057 179.644 126.445 180.789 125.546 181.688C124.647 182.588 123.501 183.2 122.254 183.448C121.007 183.696 119.715 183.569 118.54 183.082C117.365 182.595 116.361 181.771 115.655 180.714C114.948 179.657 114.571 178.414 114.571 177.143C114.571 175.438 115.249 173.803 116.454 172.597C117.66 171.392 119.295 170.714 121 170.714Z" fill="white" fill-opacity="0.5"/>
<path d="M137.071 10H104.929V16.4286H137.071V10Z" fill="white" fill-opacity="0.5"/>
<path d="M121 58.2142C114.643 58.2142 108.428 60.0994 103.142 63.6313C97.8565 67.1632 93.7367 72.1832 91.3039 78.0565C88.8711 83.9299 88.2345 90.3927 89.4748 96.6278C90.715 102.863 93.7763 108.59 98.2716 113.086C102.767 117.581 108.494 120.642 114.729 121.882C120.964 123.123 127.427 122.486 133.301 120.053C139.174 117.62 144.194 113.501 147.726 108.215C151.258 102.929 153.143 96.7143 153.143 90.3571C153.134 81.8351 149.744 73.6649 143.718 67.639C137.692 61.6131 129.522 58.2236 121 58.2142ZM99.4418 79.7724L103.987 75.2274L108.143 79.3835L112.299 75.2274L116.844 79.7724L112.688 83.9285L116.844 88.0846L112.299 92.6296L108.143 88.4735L103.987 92.6296L99.4418 88.0846L103.598 83.9285L99.4418 79.7724ZM134.021 110.659C133.925 110.382 131.244 103.214 121 103.214C110.579 103.214 108.005 110.585 107.979 110.659L101.872 108.627C102.036 108.142 105.999 96.7857 121 96.7857C136.001 96.7857 139.964 108.142 140.122 108.627L134.021 110.659ZM142.558 88.0846L138.013 92.6296L133.857 88.4735L129.701 92.6296L125.156 88.0846L129.312 83.9285L125.156 79.7724L129.701 75.2274L133.857 79.3835L138.013 75.2274L142.558 79.7724L138.402 83.9285L142.558 88.0846Z" fill="white" fill-opacity="0.5"/>
<path d="M156.357 10H143.5V19.6429C143.5 20.4953 143.161 21.3129 142.559 21.9157C141.956 22.5185 141.138 22.8571 140.286 22.8571H101.714C100.862 22.8571 100.044 22.5185 99.4414 21.9157C98.8386 21.3129 98.5 20.4953 98.5 19.6429V10H85.6429C83.0854 10 80.6327 11.0159 78.8243 12.8243C77.0159 14.6327 76 17.0854 76 19.6429V27.955L85.6429 37.5979L93.0132 30.2275C93.616 29.6249 94.4334 29.2864 95.2857 29.2864C96.138 29.2864 96.9554 29.6249 97.5582 30.2275L110.415 43.0846L105.87 47.6296L95.2857 37.045L87.9154 44.4154C87.3126 45.0179 86.4952 45.3565 85.6429 45.3565C84.7905 45.3565 83.9731 45.0179 83.3704 44.4154L76 37.045V157.857H166V152.759L156.357 143.116L148.987 150.487C148.384 151.089 147.567 151.428 146.714 151.428C145.862 151.428 145.045 151.089 144.442 150.487L131.585 137.63L136.13 133.085L146.714 143.669L154.085 136.299C154.687 135.696 155.505 135.358 156.357 135.358C157.209 135.358 158.027 135.696 158.63 136.299L166 143.669V19.6429C166 17.0854 164.984 14.6327 163.176 12.8243C161.367 11.0159 158.915 10 156.357 10ZM121 128.929C113.371 128.929 105.914 126.666 99.5709 122.428C93.2278 118.19 88.284 112.166 85.3646 105.118C82.4453 98.0698 81.6814 90.3144 83.1697 82.8322C84.658 75.3501 88.3316 68.4773 93.7259 63.083C99.1202 57.6887 105.993 54.0151 113.475 52.5269C120.957 51.0386 128.713 51.8024 135.761 54.7218C142.809 57.6412 148.833 62.585 153.071 68.928C157.309 75.271 159.571 82.7284 159.571 90.3571C159.56 100.584 155.493 110.388 148.262 117.619C141.031 124.85 131.226 128.918 121 128.929Z" fill="white" fill-opacity="0.5"/>
</svg>
