<svg width="251" height="264" viewBox="0 0 251 264" fill="none" xmlns="http://www.w3.org/2000/svg">
<path d="M9.68082 244.909H4.22082V258.909H6.22082V254.669H9.68082C13.3208 254.669 15.5208 252.829 15.5208 249.789C15.5208 246.749 13.3208 244.909 9.68082 244.909ZM9.62082 252.929H6.22082V246.649H9.62082C12.1808 246.649 13.5208 247.789 13.5208 249.789C13.5208 251.789 12.1808 252.929 9.62082 252.929ZM27.5238 253.669C27.5238 250.409 25.3438 248.209 22.2838 248.209C19.2238 248.209 16.9638 250.469 16.9638 253.609C16.9638 256.769 19.2438 259.029 22.6638 259.029C24.4238 259.029 25.8838 258.429 26.8438 257.309L25.7838 256.069C25.0038 256.929 23.9638 257.349 22.7238 257.349C20.6238 257.349 19.1238 256.109 18.8838 254.249H27.4838C27.5038 254.069 27.5238 253.829 27.5238 253.669ZM22.2838 249.829C24.1438 249.829 25.4838 251.089 25.6838 252.869H18.8838C19.0838 251.069 20.4438 249.829 22.2838 249.829ZM40.9224 248.309L36.6424 255.469L32.4824 248.309H30.5024V258.909H32.2624V251.149L36.1824 257.709H37.0224L40.9824 251.169V258.909H42.7224V248.309H40.9224ZM50.9994 259.029C54.1794 259.029 56.4994 256.769 56.4994 253.609C56.4994 250.449 54.1794 248.209 50.9994 248.209C47.8194 248.209 45.4794 250.449 45.4794 253.609C45.4794 256.769 47.8194 259.029 50.9994 259.029ZM50.9994 257.349C48.9594 257.349 47.4194 255.869 47.4194 253.609C47.4194 251.349 48.9594 249.889 50.9994 249.889C53.0394 249.889 54.5594 251.349 54.5594 253.609C54.5594 255.869 53.0394 257.349 50.9994 257.349ZM59.2719 258.909H61.1919V254.469H67.2319V258.909H69.1519V248.309H67.2319V252.809H61.1919V248.309H59.2719V258.909ZM80.7852 248.309H71.1052V249.989H74.9852V258.909H76.9052V249.989H80.7852V248.309ZM82.7485 258.909H84.5085L90.9885 251.189V258.909H92.9085V248.309H91.1685L84.6685 256.029V248.309H82.7485V258.909ZM102.255 248.209C100.695 248.209 99.3352 248.809 98.4752 249.989V248.309H96.6352V262.789H98.5552V257.309C99.4352 258.449 100.755 259.029 102.255 259.029C105.355 259.029 107.615 256.869 107.615 253.609C107.615 250.369 105.355 248.209 102.255 248.209ZM102.095 257.349C100.075 257.349 98.5352 255.869 98.5352 253.609C98.5352 251.369 100.075 249.889 102.095 249.889C104.135 249.889 105.675 251.369 105.675 253.609C105.675 255.869 104.135 257.349 102.095 257.349ZM117.692 248.309L114.032 256.789L110.332 248.309H108.332L113.012 258.889L112.672 259.629C112.152 260.849 111.572 261.269 110.652 261.269C109.932 261.269 109.272 260.989 108.752 260.489L107.932 261.929C108.592 262.569 109.632 262.909 110.652 262.909C112.272 262.909 113.492 262.209 114.432 259.969L119.572 248.309H117.692ZM130.825 253.669C130.825 250.409 128.645 248.209 125.585 248.209C122.525 248.209 120.265 250.469 120.265 253.609C120.265 256.769 122.545 259.029 125.965 259.029C127.725 259.029 129.185 258.429 130.145 257.309L129.085 256.069C128.305 256.929 127.265 257.349 126.025 257.349C123.925 257.349 122.425 256.109 122.185 254.249H130.785C130.805 254.069 130.825 253.829 130.825 253.669ZM125.585 249.829C127.445 249.829 128.785 251.089 128.985 252.869H122.185C122.385 251.069 123.745 249.829 125.585 249.829ZM144.223 248.309L139.943 255.469L135.783 248.309H133.803V258.909H135.563V251.149L139.483 257.709H140.323L144.283 251.169V258.909H146.023V248.309H144.223Z" fill="white" fill-opacity="0.5"/>
<path d="M8.42872 231.24C7.08472 231.24 5.88472 230.904 4.82872 230.232C3.77272 229.544 2.94072 228.552 2.33272 227.256C1.72472 225.944 1.42072 224.392 1.42072 222.6C1.42072 220.808 1.72472 219.264 2.33272 217.968C2.94072 216.656 3.77272 215.664 4.82872 214.992C5.88472 214.304 7.08472 213.96 8.42872 213.96C9.77272 213.96 10.9727 214.304 12.0287 214.992C13.1007 215.664 13.9407 216.656 14.5487 217.968C15.1567 219.264 15.4607 220.808 15.4607 222.6C15.4607 224.392 15.1567 225.944 14.5487 227.256C13.9407 228.552 13.1007 229.544 12.0287 230.232C10.9727 230.904 9.77272 231.24 8.42872 231.24ZM8.42872 228.528C9.62872 228.528 10.5727 228.032 11.2607 227.04C11.9647 226.048 12.3167 224.568 12.3167 222.6C12.3167 220.632 11.9647 219.152 11.2607 218.16C10.5727 217.168 9.62872 216.672 8.42872 216.672C7.24472 216.672 6.30072 217.168 5.59672 218.16C4.90872 219.152 4.56472 220.632 4.56472 222.6C4.56472 224.568 4.90872 226.048 5.59672 227.04C6.30072 228.032 7.24472 228.528 8.42872 228.528ZM24.4868 221.136C26.0388 221.328 27.2228 221.856 28.0388 222.72C28.8548 223.584 29.2628 224.664 29.2628 225.96C29.2628 226.936 29.0148 227.824 28.5188 228.624C28.0228 229.424 27.2708 230.064 26.2628 230.544C25.2708 231.008 24.0548 231.24 22.6148 231.24C21.4148 231.24 20.2548 231.072 19.1348 230.736C18.0308 230.384 17.0868 229.904 16.3028 229.296L17.6468 226.872C18.2548 227.384 18.9908 227.792 19.8548 228.096C20.7348 228.384 21.6388 228.528 22.5668 228.528C23.6708 228.528 24.5348 228.304 25.1588 227.856C25.7988 227.392 26.1188 226.768 26.1188 225.984C26.1188 225.2 25.8148 224.592 25.2068 224.16C24.6148 223.712 23.7028 223.488 22.4708 223.488H20.9348V221.352L24.7508 216.816H17.1188V214.2H28.5668V216.288L24.4868 221.136Z" fill="white" fill-opacity="0.5"/>
<path d="M250.707 231.707C251.098 231.317 251.098 230.683 250.707 230.293L244.343 223.929C243.953 223.538 243.319 223.538 242.929 223.929C242.538 224.319 242.538 224.953 242.929 225.343L248.586 231L242.929 236.657C242.538 237.047 242.538 237.681 242.929 238.071C243.319 238.462 243.953 238.462 244.343 238.071L250.707 231.707ZM36.7347 232L250 232L250 230L36.7347 230L36.7347 232Z" fill="white" fill-opacity="0.5"/>
<path d="M53.3539 152.004C49.4617 152.004 45.6569 153.14 42.4206 155.267C39.1844 157.394 36.662 160.418 35.1726 163.955C33.6831 167.492 33.2934 171.385 34.0527 175.14C34.812 178.895 36.6863 182.345 39.4385 185.052C42.1907 187.76 45.6972 189.604 49.5146 190.351C53.332 191.097 57.2889 190.714 60.8848 189.249C64.4807 187.784 67.5542 185.302 69.7166 182.119C71.879 178.935 73.0332 175.192 73.0332 171.363C73.0279 166.231 70.9529 161.31 67.2635 157.68C63.574 154.051 58.5715 152.01 53.3539 152.004ZM53.3539 181.043C51.4078 181.043 49.5054 180.475 47.8872 179.412C46.2691 178.348 45.0079 176.836 44.2632 175.068C43.5185 173.299 43.3236 171.353 43.7033 169.475C44.0829 167.597 45.0201 165.873 46.3962 164.519C47.7723 163.165 49.5255 162.243 51.4342 161.87C53.3429 161.496 55.3214 161.688 57.1193 162.421C58.9173 163.153 60.454 164.394 61.5352 165.986C62.6164 167.578 63.1935 169.449 63.1935 171.363C63.1935 173.931 62.1568 176.393 60.3115 178.208C58.4662 180.023 55.9635 181.043 53.3539 181.043Z" fill="white" fill-opacity="0.5"/>
<path d="M63.1935 11.79V29.3971C63.1935 30.2528 62.848 31.0735 62.2329 31.6786C61.6178 32.2837 60.7835 32.6236 59.9137 32.6236H46.7941C45.9242 32.6236 45.09 32.2837 44.4749 31.6786C43.8598 31.0735 43.5142 30.2528 43.5142 29.3971V11.79C40.5058 13.6787 38.028 16.2809 36.3087 19.3574C34.5894 22.434 33.6836 25.8863 33.6746 29.3971C33.6469 31.9469 34.1371 34.4765 35.1163 36.8375C36.0954 39.1986 37.544 41.3435 39.3769 43.1466C41.2098 44.9497 43.3903 46.3747 45.7903 47.3379C48.1904 48.3012 50.7619 48.7833 53.3539 48.7561C55.9459 48.7833 58.5173 48.3012 60.9174 47.3379C63.3175 46.3747 65.498 44.9497 67.3309 43.1466C69.1638 41.3435 70.6123 39.1986 71.5915 36.8375C72.5707 34.4765 73.0608 31.9469 73.0332 29.3971C73.0242 25.8863 72.1184 22.434 70.3991 19.3574C68.6797 16.2809 66.202 13.6787 63.1935 11.79Z" fill="white" fill-opacity="0.5"/>
<path d="M59.9137 146.4V54.396C55.6099 55.48 51.0979 55.48 46.7941 54.396V146.4C51.0917 145.268 55.6161 145.268 59.9137 146.4Z" fill="white" fill-opacity="0.5"/>
<path d="M214.068 113.286H194.389C193.519 113.286 192.685 113.626 192.07 114.231C191.455 114.836 191.109 115.657 191.109 116.513C191.109 117.369 191.455 118.189 192.07 118.794C192.685 119.399 193.519 119.739 194.389 119.739H214.068C214.938 119.739 215.772 119.399 216.387 118.794C217.003 118.189 217.348 117.369 217.348 116.513C217.348 115.657 217.003 114.836 216.387 114.231C215.772 113.626 214.938 113.286 214.068 113.286Z" fill="white" fill-opacity="0.5"/>
<path d="M200.949 48.7561H207.508V106.833H200.949V48.7561Z" fill="white" fill-opacity="0.5"/>
<path d="M213.842 35.2081L208.158 10.0381H200.299L194.615 35.2081L199.423 42.3032H209.034L213.842 35.2081Z" fill="white" fill-opacity="0.5"/>
<path d="M214.068 190.723C214.938 190.723 215.772 190.383 216.387 189.777C217.003 189.172 217.348 188.352 217.348 187.496V129.419C217.348 128.563 217.003 127.742 216.387 127.137C215.772 126.532 214.938 126.192 214.068 126.192H194.389C193.519 126.192 192.685 126.532 192.07 127.137C191.455 127.742 191.109 128.563 191.109 129.419V187.496C191.109 188.352 191.455 189.172 192.07 189.777C192.685 190.383 193.519 190.723 194.389 190.723H197.669V171.363H204.229V190.723H214.068Z" fill="white" fill-opacity="0.5"/>
<path d="M115.672 16.491H148.471V22.944H115.672V16.491Z" fill="white" fill-opacity="0.5"/>
<path d="M132.071 171.363C133.883 171.363 135.351 169.919 135.351 168.137C135.351 166.355 133.883 164.91 132.071 164.91C130.26 164.91 128.791 166.355 128.791 168.137C128.791 169.919 130.26 171.363 132.071 171.363Z" fill="white" fill-opacity="0.5"/>
<path d="M171.43 177.816V152.004H92.7125V177.816C92.7125 179.528 93.4036 181.169 94.6338 182.379C95.864 183.59 97.5325 184.269 99.2723 184.269H164.87C166.61 184.269 168.278 183.59 169.508 182.379C170.739 181.169 171.43 179.528 171.43 177.816ZM132.071 177.816C130.125 177.816 128.223 177.249 126.604 176.185C124.986 175.122 123.725 173.61 122.98 171.841C122.236 170.072 122.041 168.126 122.421 166.249C122.8 164.371 123.737 162.646 125.113 161.292C126.49 159.939 128.243 159.017 130.151 158.643C132.06 158.27 134.039 158.462 135.837 159.194C137.635 159.927 139.171 161.167 140.252 162.759C141.334 164.351 141.911 166.223 141.911 168.137C141.911 170.704 140.874 173.166 139.029 174.981C137.183 176.797 134.681 177.816 132.071 177.816Z" fill="white" fill-opacity="0.5"/>
<path d="M171.43 22.944C171.43 21.2325 170.739 19.5912 169.508 18.381C168.278 17.1708 166.61 16.491 164.87 16.491H155.03V26.1705C155.03 27.0262 154.685 27.8469 154.07 28.452C153.455 29.0571 152.62 29.397 151.75 29.397H112.392C111.522 29.397 110.688 29.0571 110.073 28.452C109.457 27.8469 109.112 27.0262 109.112 26.1705V16.491H99.2723C97.5325 16.491 95.864 17.1708 94.6338 18.381C93.4036 19.5912 92.7125 21.2325 92.7125 22.944V145.551H171.43V22.944ZM121.27 105.888L116.633 101.326L142.872 75.5135L147.51 80.0757L121.27 105.888ZM121.27 89.7553L116.633 85.193L142.872 59.3809L147.51 63.9432L121.27 89.7553ZM151.75 42.303H145.191V35.85H151.75V42.303ZM164.87 42.303H158.31V35.85H164.87V42.303Z" fill="white" fill-opacity="0.5"/>
</svg>
