<svg width="250" height="264" viewBox="0 0 250 264" fill="none" xmlns="http://www.w3.org/2000/svg">
<path d="M13.9121 251.649C15.2721 251.129 16.0921 250.049 16.0921 248.509C16.0921 246.169 14.2521 244.909 11.2121 244.909H5.19205V258.909H11.5921C15.0321 258.909 16.7921 257.489 16.7921 255.089C16.7921 253.269 15.7921 252.109 13.9121 251.649ZM7.17205 246.489H11.0721C12.9921 246.489 14.0721 247.289 14.0721 248.789C14.0721 250.289 12.9921 251.069 11.0721 251.069H7.17205V246.489ZM11.5521 257.329H7.17205V252.589H11.5521C13.6521 252.589 14.7721 253.309 14.7721 254.929C14.7721 256.569 13.6521 257.329 11.5521 257.329ZM24.3535 259.029C27.5335 259.029 29.8535 256.769 29.8535 253.609C29.8535 250.449 27.5335 248.209 24.3535 248.209C21.1735 248.209 18.8335 250.449 18.8335 253.609C18.8335 256.769 21.1735 259.029 24.3535 259.029ZM24.3535 257.349C22.3135 257.349 20.7735 255.869 20.7735 253.609C20.7735 251.349 22.3135 249.889 24.3535 249.889C26.3935 249.889 27.9135 251.349 27.9135 253.609C27.9135 255.869 26.3935 257.349 24.3535 257.349ZM38.2488 253.389C39.4088 252.969 40.1688 252.109 40.1688 251.049C40.1688 249.329 38.2688 248.169 35.6888 248.169C34.3288 248.169 33.0088 248.449 31.6288 249.149L32.1488 250.629C33.3088 250.089 34.4088 249.809 35.4888 249.809C37.1088 249.809 38.1888 250.369 38.1888 251.329C38.1888 252.229 37.2888 252.749 35.8688 252.749H34.0688V254.129H36.0088C37.5688 254.129 38.4888 254.689 38.4888 255.669C38.4888 256.749 37.3088 257.409 35.5088 257.409C34.2088 257.409 32.8088 257.049 31.7888 256.389L31.2088 257.849C32.3888 258.609 33.9488 259.049 35.5288 259.049C38.3488 259.049 40.4688 257.749 40.4688 255.829C40.4688 254.609 39.6688 253.749 38.2488 253.389ZM50.6077 253.409C51.6677 252.989 52.3077 252.169 52.3077 251.029C52.3077 249.289 50.8077 248.309 48.3077 248.309H43.3877V258.909H48.4877C51.3077 258.909 52.6677 257.829 52.6677 255.989C52.6677 254.649 52.0077 253.769 50.6077 253.409ZM45.2677 249.789H48.1477C49.6077 249.789 50.3877 250.289 50.3877 251.309C50.3877 252.329 49.6077 252.869 48.1477 252.869H45.2677V249.789ZM48.3477 257.429H45.2677V254.249H48.4677C50.0477 254.249 50.7477 254.769 50.7477 255.869C50.7477 256.949 49.9277 257.429 48.3477 257.429ZM61.2928 248.209C59.7328 248.209 58.3728 248.809 57.5128 249.989V248.309H55.6728V262.789H57.5928V257.309C58.4728 258.449 59.7928 259.029 61.2928 259.029C64.3928 259.029 66.6528 256.869 66.6528 253.609C66.6528 250.369 64.3928 248.209 61.2928 248.209ZM61.1328 257.349C59.1128 257.349 57.5728 255.869 57.5728 253.609C57.5728 251.369 59.1128 249.889 61.1328 249.889C63.1728 249.889 64.7128 251.369 64.7128 253.609C64.7128 255.869 63.1728 257.349 61.1328 257.349ZM73.1247 248.209C71.4247 248.209 69.8447 248.689 68.7447 249.569L69.5447 251.009C70.3647 250.309 71.6447 249.869 72.9047 249.869C74.8047 249.869 75.7447 250.809 75.7447 252.429V252.809H72.7047C69.5447 252.809 68.4447 254.209 68.4447 255.909C68.4447 257.749 69.9647 259.029 72.3647 259.029C74.0247 259.029 75.2047 258.469 75.8447 257.509V258.909H77.6647V252.509C77.6647 249.609 76.0247 248.209 73.1247 248.209ZM72.6847 257.549C71.2247 257.549 70.3447 256.889 70.3447 255.829C70.3447 254.929 70.8847 254.189 72.7847 254.189H75.7447V255.669C75.2647 256.889 74.1247 257.549 72.6847 257.549ZM96.2221 257.229V248.309H94.3021V257.229H89.6421V248.309H87.7221V257.229H83.0421V248.309H81.1221V258.909H96.0021V261.169H97.8021V257.229H96.2221ZM103.73 248.209C102.03 248.209 100.45 248.689 99.3502 249.569L100.15 251.009C100.97 250.309 102.25 249.869 103.51 249.869C105.41 249.869 106.35 250.809 106.35 252.429V252.809H103.31C100.15 252.809 99.0502 254.209 99.0502 255.909C99.0502 257.749 100.57 259.029 102.97 259.029C104.63 259.029 105.81 258.469 106.45 257.509V258.909H108.27V252.509C108.27 249.609 106.63 248.209 103.73 248.209ZM103.29 257.549C101.83 257.549 100.95 256.889 100.95 255.829C100.95 254.929 101.49 254.189 103.39 254.189H106.35V255.669C105.87 256.889 104.73 257.549 103.29 257.549ZM121.308 253.669C121.308 250.409 119.128 248.209 116.068 248.209C113.008 248.209 110.748 250.469 110.748 253.609C110.748 256.769 113.028 259.029 116.448 259.029C118.208 259.029 119.668 258.429 120.628 257.309L119.568 256.069C118.788 256.929 117.748 257.349 116.508 257.349C114.408 257.349 112.908 256.109 112.668 254.249H121.268C121.288 254.069 121.308 253.829 121.308 253.669ZM116.068 249.829C117.928 249.829 119.268 251.089 119.468 252.869H112.668C112.868 251.069 114.228 249.829 116.068 249.829ZM134.706 248.309L130.426 255.469L126.266 248.309H124.286V258.909H126.046V251.149L129.966 257.709H130.806L134.766 251.169V258.909H136.506V248.309H134.706Z" fill="white" fill-opacity="0.5"/>
<path d="M8.41152 231.24C7.06752 231.24 5.86752 230.904 4.81152 230.232C3.75552 229.544 2.92352 228.552 2.31552 227.256C1.70752 225.944 1.40352 224.392 1.40352 222.6C1.40352 220.808 1.70752 219.264 2.31552 217.968C2.92352 216.656 3.75552 215.664 4.81152 214.992C5.86752 214.304 7.06752 213.96 8.41152 213.96C9.75552 213.96 10.9555 214.304 12.0115 214.992C13.0835 215.664 13.9235 216.656 14.5315 217.968C15.1395 219.264 15.4435 220.808 15.4435 222.6C15.4435 224.392 15.1395 225.944 14.5315 227.256C13.9235 228.552 13.0835 229.544 12.0115 230.232C10.9555 230.904 9.75552 231.24 8.41152 231.24ZM8.41152 228.528C9.61152 228.528 10.5555 228.032 11.2435 227.04C11.9475 226.048 12.2995 224.568 12.2995 222.6C12.2995 220.632 11.9475 219.152 11.2435 218.16C10.5555 217.168 9.61152 216.672 8.41152 216.672C7.22752 216.672 6.28352 217.168 5.57952 218.16C4.89152 219.152 4.54752 220.632 4.54752 222.6C4.54752 224.568 4.89152 226.048 5.57952 227.04C6.28352 228.032 7.22752 228.528 8.41152 228.528ZM32.528 227.184H29.552V231H26.528V227.184H17.312V225.024L25.592 214.2H28.928L21.128 224.544H26.624V221.16H29.552V224.544H32.528V227.184Z" fill="white" fill-opacity="0.5"/>
<line x1="40.1606" y1="231" x2="250" y2="231" stroke="white" stroke-opacity="0.5" stroke-width="2"/>
<path d="M162.902 22.9441H117.721V84.2477H162.902V22.9441ZM123.368 29.3971H129.016V35.8501H123.368V29.3971ZM136.976 73.1905C136.74 73.5767 136.432 73.899 136.075 74.1348C135.718 74.3706 135.32 74.5141 134.909 74.5553C134.828 74.5644 134.746 74.5687 134.664 74.5682C133.915 74.568 133.197 74.228 132.667 73.6228L124.196 63.9433L128.189 59.381L134.28 66.3406L152.118 37.2278L156.743 40.9254L136.976 73.1905Z" fill="white" fill-opacity="0.5"/>
<path d="M120.545 103.607H160.078C160.827 103.607 161.545 103.267 162.075 102.662C162.604 102.057 162.902 101.236 162.902 100.38V90.7009H117.721V100.38C117.721 101.236 118.018 102.057 118.548 102.662C119.078 103.267 119.796 103.607 120.545 103.607Z" fill="white" fill-opacity="0.5"/>
<path d="M162.902 13.2646C162.902 12.4089 162.604 11.5882 162.075 10.9831C161.545 10.378 160.827 10.0381 160.078 10.0381H120.545C119.796 10.0381 119.078 10.378 118.548 10.9831C118.018 11.5882 117.721 12.4089 117.721 13.2646V16.4911H162.902V13.2646Z" fill="white" fill-opacity="0.5"/>
<path d="M61.245 126.192H66.8926V171.363H61.245V126.192Z" fill="white" fill-opacity="0.5"/>
<path d="M72.5402 119.739H83.8353V177.816H72.5402V119.739Z" fill="white" fill-opacity="0.5"/>
<path d="M213.73 126.192H219.378V171.363H213.73V126.192Z" fill="white" fill-opacity="0.5"/>
<path d="M196.787 119.739H208.082V177.816H196.787V119.739Z" fill="white" fill-opacity="0.5"/>
<path d="M175.366 164.91H191.14V132.645H179.844C179.541 132.645 179.24 132.588 178.952 132.478L153.973 122.966H118.89L99.1234 145.551H113.728L124.196 133.591C124.725 132.986 125.443 132.646 126.192 132.645H145.959C146.57 132.645 147.164 132.872 147.653 133.291L158.948 142.97L155.56 148.133L145.019 139.098H127.361L116.894 151.059C116.364 151.664 115.646 152.004 114.897 152.004H92.3068C91.7484 152.004 91.2025 151.815 90.7383 151.46C90.274 151.106 89.9122 150.602 89.6985 150.013C89.4848 149.423 89.4289 148.774 89.5378 148.149C89.6467 147.523 89.9156 146.948 90.3103 146.497L105.257 129.419H89.483V168.137H109.25C109.998 168.137 110.717 168.477 111.246 169.082L130.185 190.722H139.142L121.372 170.418L125.365 165.856L141.48 184.269H150.437L132.667 163.965L136.66 159.403L152.776 177.816H161.733L143.962 157.512L147.955 152.95L164.071 171.363H173.028L160.905 157.512L164.898 152.95L175.366 164.91Z" fill="white" fill-opacity="0.5"/>
</svg>
