<svg width="256" height="264" viewBox="0 0 256 264" fill="none" xmlns="http://www.w3.org/2000/svg">
<path d="M14.24 245V259H12.28V246.74H4.16V259H2.18V245H14.24ZM23.9058 248.3C24.9324 248.3 25.8524 248.527 26.6658 248.98C27.4791 249.433 28.1124 250.067 28.5658 250.88C29.0324 251.693 29.2658 252.633 29.2658 253.7C29.2658 254.767 29.0324 255.713 28.5658 256.54C28.1124 257.353 27.4791 257.987 26.6658 258.44C25.8524 258.893 24.9324 259.12 23.9058 259.12C23.1458 259.12 22.4458 258.973 21.8058 258.68C21.1791 258.387 20.6458 257.96 20.2058 257.4V262.88H18.2858V248.4H20.1258V250.08C20.5524 249.493 21.0924 249.053 21.7458 248.76C22.3991 248.453 23.1191 248.3 23.9058 248.3ZM23.7458 257.44C24.4258 257.44 25.0324 257.287 25.5658 256.98C26.1124 256.66 26.5391 256.22 26.8458 255.66C27.1658 255.087 27.3258 254.433 27.3258 253.7C27.3258 252.967 27.1658 252.32 26.8458 251.76C26.5391 251.187 26.1124 250.747 25.5658 250.44C25.0324 250.133 24.4258 249.98 23.7458 249.98C23.0791 249.98 22.4724 250.14 21.9258 250.46C21.3924 250.767 20.9658 251.2 20.6458 251.76C20.3391 252.32 20.1858 252.967 20.1858 253.7C20.1858 254.433 20.3391 255.087 20.6458 255.66C20.9524 256.22 21.3791 256.66 21.9258 256.98C22.4724 257.287 23.0791 257.44 23.7458 257.44ZM32.0553 248.4H33.9753V256.12L40.4753 248.4H42.2153V259H40.2953V251.28L33.8153 259H32.0553V248.4ZM45.942 248.4H47.862V252.9H53.902V248.4H55.822V259H53.902V254.56H47.862V259H45.942V248.4ZM59.5553 248.4H61.4753V256.12L67.9753 248.4H69.7153V259H67.7953V251.28L61.3153 259H59.5553V248.4ZM85.662 248.4V259H83.922V251.26L79.962 257.8H79.122L75.202 251.24V259H73.442V248.4H75.422L79.582 255.56L83.862 248.4H85.662ZM93.1791 248.3C94.6457 248.3 95.7657 248.66 96.5391 249.38C97.3257 250.1 97.7191 251.173 97.7191 252.6V259H95.8991V257.6C95.5791 258.093 95.1191 258.473 94.5191 258.74C93.9324 258.993 93.2324 259.12 92.4191 259.12C91.2324 259.12 90.2791 258.833 89.5591 258.26C88.8524 257.687 88.4991 256.933 88.4991 256C88.4991 255.067 88.8391 254.32 89.5191 253.76C90.1991 253.187 91.2791 252.9 92.7591 252.9H95.7991V252.52C95.7991 251.693 95.5591 251.06 95.0791 250.62C94.5991 250.18 93.8924 249.96 92.9591 249.96C92.3324 249.96 91.7191 250.067 91.1191 250.28C90.5191 250.48 90.0124 250.753 89.5991 251.1L88.7991 249.66C89.3457 249.22 89.9991 248.887 90.7591 248.66C91.5191 248.42 92.3257 248.3 93.1791 248.3ZM92.7391 257.64C93.4724 257.64 94.1057 257.48 94.6391 257.16C95.1724 256.827 95.5591 256.36 95.7991 255.76V254.28H92.8391C91.2124 254.28 90.3991 254.827 90.3991 255.92C90.3991 256.453 90.6057 256.873 91.0191 257.18C91.4324 257.487 92.0057 257.64 92.7391 257.64ZM110.756 253.76C110.756 253.907 110.743 254.1 110.716 254.34H102.116C102.236 255.273 102.643 256.027 103.336 256.6C104.043 257.16 104.916 257.44 105.956 257.44C107.223 257.44 108.243 257.013 109.016 256.16L110.076 257.4C109.596 257.96 108.996 258.387 108.276 258.68C107.57 258.973 106.776 259.12 105.896 259.12C104.776 259.12 103.783 258.893 102.916 258.44C102.05 257.973 101.376 257.327 100.896 256.5C100.43 255.673 100.196 254.74 100.196 253.7C100.196 252.673 100.423 251.747 100.876 250.92C101.343 250.093 101.976 249.453 102.776 249C103.59 248.533 104.503 248.3 105.516 248.3C106.53 248.3 107.43 248.533 108.216 249C109.016 249.453 109.636 250.093 110.076 250.92C110.53 251.747 110.756 252.693 110.756 253.76ZM105.516 249.92C104.596 249.92 103.823 250.2 103.196 250.76C102.583 251.32 102.223 252.053 102.116 252.96H108.916C108.81 252.067 108.443 251.34 107.816 250.78C107.203 250.207 106.436 249.92 105.516 249.92ZM125.955 248.4V259H124.215V251.26L120.255 257.8H119.415L115.495 251.24V259H113.735V248.4H115.715L119.875 255.56L124.155 248.4H125.955ZM144.523 248.4L139.383 260.06C138.93 261.14 138.396 261.9 137.783 262.34C137.183 262.78 136.456 263 135.603 263C135.083 263 134.576 262.913 134.083 262.74C133.603 262.58 133.203 262.34 132.883 262.02L133.703 260.58C134.25 261.1 134.883 261.36 135.603 261.36C136.07 261.36 136.456 261.233 136.763 260.98C137.083 260.74 137.37 260.32 137.623 259.72L137.963 258.98L133.283 248.4H135.283L138.983 256.88L142.643 248.4H144.523ZM150.816 259.12C149.736 259.12 148.769 258.887 147.916 258.42C147.076 257.953 146.416 257.313 145.936 256.5C145.456 255.673 145.216 254.74 145.216 253.7C145.216 252.66 145.456 251.733 145.936 250.92C146.416 250.093 147.076 249.453 147.916 249C148.769 248.533 149.736 248.3 150.816 248.3C151.776 248.3 152.629 248.493 153.376 248.88C154.136 249.267 154.723 249.827 155.136 250.56L153.676 251.5C153.343 250.993 152.929 250.613 152.436 250.36C151.943 250.107 151.396 249.98 150.796 249.98C150.103 249.98 149.476 250.133 148.916 250.44C148.369 250.747 147.936 251.187 147.616 251.76C147.309 252.32 147.156 252.967 147.156 253.7C147.156 254.447 147.309 255.107 147.616 255.68C147.936 256.24 148.369 256.673 148.916 256.98C149.476 257.287 150.103 257.44 150.796 257.44C151.396 257.44 151.943 257.313 152.436 257.06C152.929 256.807 153.343 256.427 153.676 255.92L155.136 256.84C154.723 257.573 154.136 258.14 153.376 258.54C152.629 258.927 151.776 259.12 150.816 259.12ZM165.385 250.08H161.505V259H159.585V250.08H155.705V248.4H165.385V250.08ZM172.968 248.3C173.995 248.3 174.915 248.527 175.728 248.98C176.542 249.433 177.175 250.067 177.628 250.88C178.095 251.693 178.328 252.633 178.328 253.7C178.328 254.767 178.095 255.713 177.628 256.54C177.175 257.353 176.542 257.987 175.728 258.44C174.915 258.893 173.995 259.12 172.968 259.12C172.208 259.12 171.508 258.973 170.868 258.68C170.242 258.387 169.708 257.96 169.268 257.4V262.88H167.348V248.4H169.188V250.08C169.615 249.493 170.155 249.053 170.808 248.76C171.462 248.453 172.182 248.3 172.968 248.3ZM172.808 257.44C173.488 257.44 174.095 257.287 174.628 256.98C175.175 256.66 175.602 256.22 175.908 255.66C176.228 255.087 176.388 254.433 176.388 253.7C176.388 252.967 176.228 252.32 175.908 251.76C175.602 251.187 175.175 250.747 174.628 250.44C174.095 250.133 173.488 249.98 172.808 249.98C172.142 249.98 171.535 250.14 170.988 250.46C170.455 250.767 170.028 251.2 169.708 251.76C169.402 252.32 169.248 252.967 169.248 253.7C169.248 254.433 169.402 255.087 169.708 255.66C170.015 256.22 170.442 256.66 170.988 256.98C171.535 257.287 172.142 257.44 172.808 257.44ZM185.658 259.12C184.604 259.12 183.658 258.887 182.818 258.42C181.978 257.953 181.318 257.313 180.838 256.5C180.371 255.673 180.138 254.74 180.138 253.7C180.138 252.66 180.371 251.733 180.838 250.92C181.318 250.093 181.978 249.453 182.818 249C183.658 248.533 184.604 248.3 185.658 248.3C186.711 248.3 187.651 248.533 188.478 249C189.318 249.453 189.971 250.093 190.438 250.92C190.918 251.733 191.158 252.66 191.158 253.7C191.158 254.74 190.918 255.673 190.438 256.5C189.971 257.313 189.318 257.953 188.478 258.42C187.651 258.887 186.711 259.12 185.658 259.12ZM185.658 257.44C186.338 257.44 186.944 257.287 187.478 256.98C188.024 256.66 188.451 256.22 188.758 255.66C189.064 255.087 189.218 254.433 189.218 253.7C189.218 252.967 189.064 252.32 188.758 251.76C188.451 251.187 188.024 250.747 187.478 250.44C186.944 250.133 186.338 249.98 185.658 249.98C184.978 249.98 184.364 250.133 183.818 250.44C183.284 250.747 182.858 251.187 182.538 251.76C182.231 252.32 182.078 252.967 182.078 253.7C182.078 254.433 182.231 255.087 182.538 255.66C182.858 256.22 183.284 256.66 183.818 256.98C184.364 257.287 184.978 257.44 185.658 257.44ZM193.93 248.4H195.85V256.12L202.35 248.4H204.09V259H202.17V251.28L195.69 259H193.93V248.4ZM198.89 247.02C197.904 247.02 197.137 246.787 196.59 246.32C196.044 245.84 195.764 245.153 195.75 244.26H197.05C197.064 244.753 197.23 245.153 197.55 245.46C197.884 245.753 198.324 245.9 198.87 245.9C199.417 245.9 199.857 245.753 200.19 245.46C200.524 245.153 200.697 244.753 200.71 244.26H202.05C202.037 245.153 201.75 245.84 201.19 246.32C200.63 246.787 199.864 247.02 198.89 247.02ZM212.437 259.12C211.357 259.12 210.39 258.887 209.537 258.42C208.697 257.953 208.037 257.313 207.557 256.5C207.077 255.673 206.837 254.74 206.837 253.7C206.837 252.66 207.077 251.733 207.557 250.92C208.037 250.093 208.697 249.453 209.537 249C210.39 248.533 211.357 248.3 212.437 248.3C213.397 248.3 214.25 248.493 214.997 248.88C215.757 249.267 216.344 249.827 216.757 250.56L215.297 251.5C214.964 250.993 214.55 250.613 214.057 250.36C213.564 250.107 213.017 249.98 212.417 249.98C211.724 249.98 211.097 250.133 210.537 250.44C209.99 250.747 209.557 251.187 209.237 251.76C208.93 252.32 208.777 252.967 208.777 253.7C208.777 254.447 208.93 255.107 209.237 255.68C209.557 256.24 209.99 256.673 210.537 256.98C211.097 257.287 211.724 257.44 212.417 257.44C213.017 257.44 213.564 257.313 214.057 257.06C214.55 256.807 214.964 256.427 215.297 255.92L216.757 256.84C216.344 257.573 215.757 258.14 214.997 258.54C214.25 258.927 213.397 259.12 212.437 259.12ZM227.006 250.08H223.126V259H221.206V250.08H217.326V248.4H227.006V250.08ZM236.189 253.5C237.563 253.847 238.249 254.707 238.249 256.08C238.249 257.013 237.896 257.733 237.189 258.24C236.496 258.747 235.456 259 234.069 259H228.969V248.4H233.889C235.143 248.4 236.123 248.64 236.829 249.12C237.536 249.587 237.889 250.253 237.889 251.12C237.889 251.68 237.736 252.167 237.429 252.58C237.136 252.98 236.723 253.287 236.189 253.5ZM230.849 252.96H233.729C234.463 252.96 235.016 252.827 235.389 252.56C235.776 252.293 235.969 251.907 235.969 251.4C235.969 250.387 235.223 249.88 233.729 249.88H230.849V252.96ZM233.929 257.52C234.729 257.52 235.329 257.393 235.729 257.14C236.129 256.887 236.329 256.493 236.329 255.96C236.329 255.413 236.143 255.007 235.769 254.74C235.409 254.473 234.836 254.34 234.049 254.34H230.849V257.52H233.929ZM245.795 259.12C244.741 259.12 243.795 258.887 242.955 258.42C242.115 257.953 241.455 257.313 240.975 256.5C240.508 255.673 240.275 254.74 240.275 253.7C240.275 252.66 240.508 251.733 240.975 250.92C241.455 250.093 242.115 249.453 242.955 249C243.795 248.533 244.741 248.3 245.795 248.3C246.848 248.3 247.788 248.533 248.615 249C249.455 249.453 250.108 250.093 250.575 250.92C251.055 251.733 251.295 252.66 251.295 253.7C251.295 254.74 251.055 255.673 250.575 256.5C250.108 257.313 249.455 257.953 248.615 258.42C247.788 258.887 246.848 259.12 245.795 259.12ZM245.795 257.44C246.475 257.44 247.081 257.287 247.615 256.98C248.161 256.66 248.588 256.22 248.895 255.66C249.201 255.087 249.355 254.433 249.355 253.7C249.355 252.967 249.201 252.32 248.895 251.76C248.588 251.187 248.161 250.747 247.615 250.44C247.081 250.133 246.475 249.98 245.795 249.98C245.115 249.98 244.501 250.133 243.955 250.44C243.421 250.747 242.995 251.187 242.675 251.76C242.368 252.32 242.215 252.967 242.215 253.7C242.215 254.433 242.368 255.087 242.675 255.66C242.995 256.22 243.421 256.66 243.955 256.98C244.501 257.287 245.115 257.44 245.795 257.44Z" fill="white" fill-opacity="0.5"/>
<path d="M8.85255 232.24C7.50855 232.24 6.30855 231.904 5.25255 231.232C4.19655 230.544 3.36455 229.552 2.75655 228.256C2.14855 226.944 1.84455 225.392 1.84455 223.6C1.84455 221.808 2.14855 220.264 2.75655 218.968C3.36455 217.656 4.19655 216.664 5.25255 215.992C6.30855 215.304 7.50855 214.96 8.85255 214.96C10.1965 214.96 11.3965 215.304 12.4525 215.992C13.5245 216.664 14.3645 217.656 14.9725 218.968C15.5805 220.264 15.8845 221.808 15.8845 223.6C15.8845 225.392 15.5805 226.944 14.9725 228.256C14.3645 229.552 13.5245 230.544 12.4525 231.232C11.3965 231.904 10.1965 232.24 8.85255 232.24ZM8.85255 229.528C10.0525 229.528 10.9965 229.032 11.6845 228.04C12.3885 227.048 12.7405 225.568 12.7405 223.6C12.7405 221.632 12.3885 220.152 11.6845 219.16C10.9965 218.168 10.0525 217.672 8.85255 217.672C7.66855 217.672 6.72455 218.168 6.02055 219.16C5.33255 220.152 4.98855 221.632 4.98855 223.6C4.98855 225.568 5.33255 227.048 6.02055 228.04C6.72455 229.032 7.66855 229.528 8.85255 229.528ZM23.6838 215.2V232H20.5638V217.816H17.0118V215.2H23.6838Z" fill="white" fill-opacity="0.5"/>
<path d="M250.707 231.707C251.098 231.317 251.098 230.683 250.707 230.293L244.343 223.929C243.953 223.538 243.319 223.538 242.929 223.929C242.538 224.319 242.538 224.953 242.929 225.343L248.586 231L242.929 236.657C242.538 237.047 242.538 237.681 242.929 238.071C243.319 238.462 243.953 238.462 244.343 238.071L250.707 231.707ZM34.9794 232L250 232L250 230L34.9794 230L34.9794 232Z" fill="white" fill-opacity="0.5"/>
<path d="M78.1893 188.199C78.1893 190.868 79.2345 193.427 81.095 195.314C82.9555 197.201 85.4788 198.261 88.11 198.261H160.861C163.492 198.261 166.016 197.201 167.876 195.314C169.737 193.427 170.782 190.868 170.782 188.199V171.429H78.1893V188.199ZM124.486 178.137C125.794 178.137 127.072 178.53 128.16 179.267C129.248 180.004 130.095 181.052 130.596 182.278C131.097 183.504 131.227 184.852 130.972 186.154C130.717 187.455 130.087 188.65 129.162 189.588C128.237 190.526 127.059 191.165 125.776 191.424C124.493 191.683 123.163 191.55 121.955 191.042C120.746 190.535 119.713 189.675 118.986 188.572C118.26 187.469 117.872 186.172 117.872 184.845C117.872 183.066 118.569 181.36 119.809 180.102C121.049 178.844 122.732 178.137 124.486 178.137Z" fill="white" fill-opacity="0.5"/>
<path d="M141.02 10.4348H107.951V17.1429H141.02V10.4348Z" fill="white" fill-opacity="0.5"/>
<path d="M124.486 60.7454C117.945 60.7454 111.552 62.7125 106.114 66.3979C100.675 70.0834 96.437 75.3217 93.9341 81.4504C91.4312 87.5791 90.7763 94.3229 92.0523 100.829C93.3282 107.335 96.4777 113.312 101.102 118.002C105.727 122.693 111.62 125.887 118.034 127.182C124.449 128.476 131.098 127.812 137.141 125.273C143.183 122.734 148.348 118.435 151.981 112.92C155.615 107.404 157.554 100.919 157.554 94.2857C157.545 85.3933 154.058 76.8678 147.858 70.5799C141.659 64.292 133.253 60.7551 124.486 60.7454ZM102.306 83.2409L106.982 78.4983L111.258 82.835L115.534 78.4983L120.21 83.2409L115.934 87.5777L120.21 91.9144L115.534 96.657L111.258 92.3203L106.982 96.657L102.306 91.9144L106.582 87.5777L102.306 83.2409ZM137.882 115.47C137.783 115.181 135.025 107.702 124.486 107.702C113.765 107.702 111.116 115.393 111.089 115.47L104.806 113.35C104.975 112.844 109.052 100.994 124.486 100.994C139.919 100.994 143.996 112.844 144.158 113.35L137.882 115.47ZM146.665 91.9144L141.989 96.657L137.713 92.3203L133.437 96.657L128.761 91.9144L133.037 87.5777L128.761 83.2409L133.437 78.4983L137.713 82.835L141.989 78.4983L146.665 83.2409L142.389 87.5777L146.665 91.9144Z" fill="white" fill-opacity="0.5"/>
<path d="M160.861 10.4348H147.634V20.4969C147.634 21.3865 147.285 22.2396 146.665 22.8686C146.045 23.4976 145.204 23.851 144.327 23.851H104.644C103.767 23.851 102.926 23.4976 102.306 22.8686C101.686 22.2396 101.337 21.3865 101.337 20.4969V10.4348H88.11C85.4788 10.4348 82.9555 11.4949 81.095 13.3819C79.2345 15.269 78.1893 17.8283 78.1893 20.4969V29.1705L88.11 39.2326L95.6926 31.5418C96.3128 30.913 97.1537 30.5598 98.0306 30.5598C98.9075 30.5598 99.7484 30.913 100.369 31.5418L113.596 44.9579L108.92 49.7005L98.0306 38.6557L90.4479 46.3465C89.8278 46.9753 88.9868 47.3285 88.11 47.3285C87.2331 47.3285 86.3921 46.9753 85.772 46.3465L78.1893 38.6557V164.721H170.782V159.401L160.861 149.339L153.279 157.03C152.658 157.658 151.818 158.012 150.941 158.012C150.064 158.012 149.223 157.658 148.603 157.03L135.375 143.614L140.051 138.871L150.941 149.916L158.523 142.225C159.143 141.596 159.984 141.243 160.861 141.243C161.738 141.243 162.579 141.596 163.199 142.225L170.782 149.916V20.4969C170.782 17.8283 169.737 15.269 167.876 13.3819C166.016 11.4949 163.492 10.4348 160.861 10.4348ZM124.486 134.534C116.637 134.534 108.965 132.174 102.439 127.751C95.9134 123.329 90.8272 117.043 87.8237 109.688C84.8203 102.334 84.0344 94.2411 85.5656 86.4337C87.0967 78.6262 90.8761 71.4546 96.4258 65.8258C101.976 60.1969 109.046 56.3637 116.744 54.8107C124.442 53.2577 132.42 54.0547 139.671 57.101C146.923 60.1473 153.12 65.3061 157.48 71.9249C161.841 78.5437 164.168 86.3253 164.168 94.2857C164.157 104.957 159.972 115.187 152.533 122.733C145.093 130.278 135.007 134.523 124.486 134.534Z" fill="white" fill-opacity="0.5"/>
</svg>
