<svg width="46" height="46" viewBox="0 0 46 46" fill="none" xmlns="http://www.w3.org/2000/svg">
<path fill-rule="evenodd" clip-rule="evenodd" d="M11 0C4.92487 0 0 4.92487 0 11V35C0 41.0751 4.92487 46 11 46H35C41.0751 46 46 41.0751 46 35V11C46 4.92487 41.0751 0 35 0H11ZM18.1475 32.3606L18.5941 26.0786L30.0995 15.7477C30.6001 15.3045 29.9915 15.0592 29.3221 15.5025L15.0988 24.4024L8.97539 22.4977C7.64339 22.0849 7.61864 21.1736 9.25327 20.5391L33.2045 11.3692C34.3138 10.9564 35.2835 11.6145 34.9224 13.2975L34.9213 13.2986L30.8465 32.3921C30.5394 33.7399 29.7373 34.074 28.5988 33.4395L22.391 28.8934L19.3951 31.7565C19.0633 32.0861 18.7865 32.3606 18.1475 32.3606Z" fill="#6D6D6D"/>
</svg>
