<svg width="246" height="253" viewBox="0 0 246 253" fill="none" xmlns="http://www.w3.org/2000/svg">
<path d="M15.46 246.26V234H5.62L5.48 238.5C5.34 242.76 4.88 246.14 2.96 246.26H2.28L2.26 251.06H4.12L4.14 248H15.66V251.06H17.52V246.26H15.46ZM7.24 238.68L7.34 235.74H13.48V246.26H5.58C6.78 245.18 7.12 242.1 7.24 238.68ZM29.2798 242.76C29.2798 239.5 27.0998 237.3 24.0398 237.3C20.9798 237.3 18.7198 239.56 18.7198 242.7C18.7198 245.86 20.9998 248.12 24.4198 248.12C26.1798 248.12 27.6398 247.52 28.5998 246.4L27.5398 245.16C26.7598 246.02 25.7198 246.44 24.4798 246.44C22.3798 246.44 20.8798 245.2 20.6398 243.34H29.2398C29.2598 243.16 29.2798 242.92 29.2798 242.76ZM24.0398 238.92C25.8998 238.92 27.2398 240.18 27.4398 241.96H20.6398C20.8398 240.16 22.1998 238.92 24.0398 238.92ZM33.0427 237.4L32.8627 241.32C32.7227 243.82 32.6427 246.42 30.9227 246.42C30.7827 246.42 30.6227 246.4 30.4427 246.36L30.3227 247.98C30.7627 248.1 31.1427 248.16 31.5027 248.16C33.9027 248.16 34.4027 245.18 34.5827 241.44L34.7027 239.08H39.2627V248H41.1827V237.4H33.0427ZM48.6752 237.3C46.9752 237.3 45.3952 237.78 44.2952 238.66L45.0952 240.1C45.9152 239.4 47.1952 238.96 48.4552 238.96C50.3552 238.96 51.2952 239.9 51.2952 241.52V241.9H48.2552C45.0952 241.9 43.9952 243.3 43.9952 245C43.9952 246.84 45.5152 248.12 47.9152 248.12C49.5752 248.12 50.7552 247.56 51.3952 246.6V248H53.2152V241.6C53.2152 238.7 51.5752 237.3 48.6752 237.3ZM48.2352 246.64C46.7752 246.64 45.8952 245.98 45.8952 244.92C45.8952 244.02 46.4352 243.28 48.3352 243.28H51.2952V244.76C50.8152 245.98 49.6752 246.64 48.2352 246.64ZM66.2525 242.76C66.2525 239.5 64.0725 237.3 61.0125 237.3C57.9525 237.3 55.6925 239.56 55.6925 242.7C55.6925 245.86 57.9725 248.12 61.3925 248.12C63.1525 248.12 64.6125 247.52 65.5725 246.4L64.5125 245.16C63.7325 246.02 62.6925 246.44 61.4525 246.44C59.3525 246.44 57.8525 245.2 57.6125 243.34H66.2125C66.2325 243.16 66.2525 242.92 66.2525 242.76ZM61.0125 238.92C62.8725 238.92 64.2125 240.18 64.4125 241.96H57.6125C57.8125 240.16 59.1725 238.92 61.0125 238.92ZM79.6511 237.4L75.3711 244.56L71.2111 237.4H69.2311V248H70.9911V240.24L74.9111 246.8H75.7511L79.7111 240.26V248H81.4511V237.4H79.6511ZM99.7192 246.32V237.4H91.4992L91.3392 240.98C91.1992 243.66 90.9392 246.24 89.4192 246.32H88.8592V250.46H90.6792V248H99.5392V250.46H101.339V246.32H99.7192ZM93.0992 241.12L93.1992 239.08H97.7992V246.32H91.8592C92.8192 245.48 93.0192 243.32 93.0992 241.12ZM103.84 248H105.6L112.08 240.28V248H114V237.4H112.26L105.76 245.12V237.4H103.84V248ZM121.507 237.3C119.807 237.3 118.227 237.78 117.127 238.66L117.927 240.1C118.747 239.4 120.027 238.96 121.287 238.96C123.187 238.96 124.127 239.9 124.127 241.52V241.9H121.087C117.927 241.9 116.827 243.3 116.827 245C116.827 246.84 118.347 248.12 120.747 248.12C122.407 248.12 123.587 247.56 124.227 246.6V248H126.047V241.6C126.047 238.7 124.407 237.3 121.507 237.3ZM121.067 246.64C119.607 246.64 118.727 245.98 118.727 244.92C118.727 244.02 119.267 243.28 121.167 243.28H124.127V244.76C123.647 245.98 122.507 246.64 121.067 246.64ZM137.305 237.4H129.505V248H131.425V239.08H137.305V237.4ZM139.27 248H141.19V243.56H147.23V248H149.15V237.4H147.23V241.9H141.19V237.4H139.27V248ZM157.423 248.12C160.603 248.12 162.923 245.86 162.923 242.7C162.923 239.54 160.603 237.3 157.423 237.3C154.243 237.3 151.903 239.54 151.903 242.7C151.903 245.86 154.243 248.12 157.423 248.12ZM157.423 246.44C155.383 246.44 153.843 244.96 153.843 242.7C153.843 240.44 155.383 238.98 157.423 238.98C159.463 238.98 160.983 240.44 160.983 242.7C160.983 244.96 159.463 246.44 157.423 246.44ZM170.316 248.12C172.216 248.12 173.796 247.32 174.636 245.84L173.176 244.92C172.496 245.96 171.456 246.44 170.296 246.44C168.216 246.44 166.656 245 166.656 242.7C166.656 240.44 168.216 238.98 170.296 238.98C171.456 238.98 172.496 239.46 173.176 240.5L174.636 239.56C173.796 238.08 172.216 237.3 170.316 237.3C167.056 237.3 164.716 239.54 164.716 242.7C164.716 245.86 167.056 248.12 170.316 248.12ZM184.885 237.4H175.205V239.08H179.085V248H181.005V239.08H184.885V237.4ZM186.848 248H188.608L195.088 240.28V248H197.008V237.4H195.268L188.768 245.12V237.4H186.848V248ZM208.415 248H210.675L206.375 242.5L210.395 237.4H208.335L204.895 241.88H202.655V237.4H200.735V248H202.655V243.52H204.855L208.415 248ZM219.663 237.4L216.003 245.88L212.303 237.4H210.303L214.983 247.98L214.643 248.72C214.123 249.94 213.543 250.36 212.623 250.36C211.903 250.36 211.243 250.08 210.723 249.58L209.903 251.02C210.563 251.66 211.603 252 212.623 252C214.243 252 215.463 251.3 216.403 249.06L221.543 237.4H219.663Z" fill="white" fill-opacity="0.5"/>
<path d="M8.064 223.24C6.72 223.24 5.52 222.904 4.464 222.232C3.408 221.544 2.576 220.552 1.968 219.256C1.36 217.944 1.056 216.392 1.056 214.6C1.056 212.808 1.36 211.264 1.968 209.968C2.576 208.656 3.408 207.664 4.464 206.992C5.52 206.304 6.72 205.96 8.064 205.96C9.408 205.96 10.608 206.304 11.664 206.992C12.736 207.664 13.576 208.656 14.184 209.968C14.792 211.264 15.096 212.808 15.096 214.6C15.096 216.392 14.792 217.944 14.184 219.256C13.576 220.552 12.736 221.544 11.664 222.232C10.608 222.904 9.408 223.24 8.064 223.24ZM8.064 220.528C9.264 220.528 10.208 220.032 10.896 219.04C11.6 218.048 11.952 216.568 11.952 214.6C11.952 212.632 11.6 211.152 10.896 210.16C10.208 209.168 9.264 208.672 8.064 208.672C6.88 208.672 5.936 209.168 5.232 210.16C4.544 211.152 4.2 212.632 4.2 214.6C4.2 216.568 4.544 218.048 5.232 219.04C5.936 220.032 6.88 220.528 8.064 220.528ZM29.2552 220.36V223H16.8713V220.912L23.5433 214.576C24.2953 213.856 24.7993 213.232 25.0553 212.704C25.3273 212.16 25.4633 211.624 25.4633 211.096C25.4633 210.312 25.1993 209.712 24.6713 209.296C24.1433 208.88 23.3673 208.672 22.3433 208.672C20.6313 208.672 19.3193 209.256 18.4073 210.424L16.2233 208.744C16.8793 207.864 17.7593 207.184 18.8633 206.704C19.9833 206.208 21.2313 205.96 22.6073 205.96C24.4313 205.96 25.8873 206.392 26.9753 207.256C28.0633 208.12 28.6073 209.296 28.6073 210.784C28.6073 211.696 28.4153 212.552 28.0312 213.352C27.6473 214.152 26.9113 215.064 25.8233 216.088L21.3353 220.36H29.2552Z" fill="white" fill-opacity="0.5"/>
<path d="M245.707 222.707C246.098 222.317 246.098 221.683 245.707 221.293L239.343 214.929C238.953 214.538 238.319 214.538 237.929 214.929C237.538 215.319 237.538 215.953 237.929 216.343L243.586 222L237.929 227.657C237.538 228.047 237.538 228.681 237.929 229.071C238.319 229.462 238.953 229.462 239.343 229.071L245.707 222.707ZM36 223L245 223L245 221L36 221L36 223Z" fill="white" fill-opacity="0.5"/>
<path d="M109.599 131.944V119.107H39V131.944C39 133.646 39.6762 135.278 40.8798 136.482C42.0834 137.685 43.7159 138.362 45.4181 138.362H103.181C104.883 138.362 106.515 137.685 107.719 136.482C108.923 135.278 109.599 133.646 109.599 131.944ZM77.5085 131.944H71.0904V125.526H77.5085V131.944Z" fill="white" fill-opacity="0.5"/>
<path d="M58.2543 144.78H90.3447V151.198H58.2543V144.78Z" fill="white" fill-opacity="0.5"/>
<path d="M109.599 16.4181C109.599 14.7159 108.923 13.0834 107.719 11.8798C106.515 10.6762 104.883 10 103.181 10H93.5537V19.6271C93.5537 20.4782 93.2156 21.2944 92.6138 21.8963C92.012 22.4981 91.1958 22.8362 90.3447 22.8362H58.2543C57.4032 22.8362 56.5869 22.4981 55.9851 21.8963C55.3833 21.2944 55.0452 20.4782 55.0452 19.6271V10H45.4181C43.7159 10 42.0834 10.6762 40.8798 11.8798C39.6762 13.0834 39 14.7159 39 16.4181V112.689H109.599V16.4181ZM66.9411 82.8677L62.4035 78.3301L81.6578 59.0759L86.1954 63.6135L66.9411 82.8677ZM66.9411 66.8225L62.4035 62.2849L81.6578 43.0307L86.1954 47.5683L66.9411 66.8225ZM90.3447 35.6723H83.9266V29.2543H90.3447V35.6723ZM103.181 35.6723H96.7628V29.2543H103.181V35.6723Z" fill="white" fill-opacity="0.5"/>
<path d="M125.644 189.706C128.197 189.706 130.646 188.692 132.452 186.887C134.257 185.081 135.271 182.632 135.271 180.079V42.0903C135.271 40.3881 135.947 38.7557 137.151 37.552C138.355 36.3484 139.987 35.6722 141.689 35.6722H170.571C172.273 35.6722 173.905 36.3484 175.109 37.552C176.313 38.7557 176.989 40.3881 176.989 42.0903V87.0169H183.407V38.8813C183.407 36.328 182.393 33.8793 180.587 32.0739C178.782 30.2684 176.333 29.2542 173.78 29.2542H138.48C135.927 29.2542 133.478 30.2684 131.673 32.0739C129.867 33.8793 128.853 36.328 128.853 38.8813V176.87C128.853 178.572 128.177 180.205 126.973 181.408C125.77 182.612 124.137 183.288 122.435 183.288H83.9266C82.2244 183.288 80.5919 182.612 79.3883 181.408C78.1847 180.205 77.5085 178.572 77.5085 176.87V157.616H71.0904V180.079C71.0904 182.632 72.1047 185.081 73.9101 186.887C75.7156 188.692 78.1643 189.706 80.7176 189.706H125.644Z" fill="white" fill-opacity="0.5"/>
<path d="M167.362 93.4351H193.034V99.8531H167.362V93.4351Z" fill="white" fill-opacity="0.5"/>
<path d="M205.996 186.791V109.774C205.996 108.923 205.658 108.107 205.056 107.505C204.454 106.903 203.638 106.565 202.787 106.565H157.86C157.009 106.565 156.193 106.903 155.591 107.505C154.989 108.107 154.651 108.923 154.651 109.774V186.791C154.651 187.642 154.989 188.458 155.591 189.06C156.193 189.662 157.009 190 157.86 190H202.787C203.638 190 204.454 189.662 205.056 189.06C205.658 188.458 205.996 187.642 205.996 186.791ZM189.951 151.492H196.369V157.91H189.951V151.492ZM183.533 151.492V157.91H177.115V151.492H183.533ZM164.278 151.492H170.697V157.91H164.278V151.492ZM199.578 180.373C199.578 181.224 199.24 182.04 198.638 182.642C198.036 183.244 197.22 183.582 196.369 183.582H164.278C163.427 183.582 162.611 183.244 162.009 182.642C161.408 182.04 161.069 181.224 161.069 180.373V167.537C161.069 166.686 161.408 165.869 162.009 165.268C162.611 164.666 163.427 164.328 164.278 164.328H196.369C197.22 164.328 198.036 164.666 198.638 165.268C199.24 165.869 199.578 166.686 199.578 167.537V180.373Z" fill="white" fill-opacity="0.5"/>
<path d="M61.4633 10H87.1356V16.4181H61.4633V10Z" fill="white" fill-opacity="0.5"/>
<path d="M167.362 170.452H193.034V176.87H167.362V170.452Z" fill="white" fill-opacity="0.5"/>
</svg>
