<svg width="246" height="293" viewBox="0 0 246 293" fill="none" xmlns="http://www.w3.org/2000/svg">
<path d="M9.64 274H4.18V288H6.18V283.76H9.64C13.28 283.76 15.48 281.92 15.48 278.88C15.48 275.84 13.28 274 9.64 274ZM9.58 282.02H6.18V275.74H9.58C12.14 275.74 13.48 276.88 13.48 278.88C13.48 280.88 12.14 282.02 9.58 282.02ZM27.483 282.76C27.483 279.5 25.303 277.3 22.243 277.3C19.183 277.3 16.923 279.56 16.923 282.7C16.923 285.86 19.203 288.12 22.623 288.12C24.383 288.12 25.843 287.52 26.803 286.4L25.743 285.16C24.963 286.02 23.923 286.44 22.683 286.44C20.583 286.44 19.083 285.2 18.843 283.34H27.443C27.463 283.16 27.483 282.92 27.483 282.76ZM22.243 278.92C24.103 278.92 25.443 280.18 25.643 281.96H18.843C19.043 280.16 20.403 278.92 22.243 278.92ZM40.8816 277.4L36.6016 284.56L32.4416 277.4H30.4616V288H32.2216V280.24L36.1416 286.8H36.9816L40.9416 280.26V288H42.6816V277.4H40.8816ZM50.9586 288.12C54.1386 288.12 56.4586 285.86 56.4586 282.7C56.4586 279.54 54.1386 277.3 50.9586 277.3C47.7786 277.3 45.4386 279.54 45.4386 282.7C45.4386 285.86 47.7786 288.12 50.9586 288.12ZM50.9586 286.44C48.9186 286.44 47.3786 284.96 47.3786 282.7C47.3786 280.44 48.9186 278.98 50.9586 278.98C52.9986 278.98 54.5186 280.44 54.5186 282.7C54.5186 284.96 52.9986 286.44 50.9586 286.44ZM59.2311 288H61.1511V283.56H67.1911V288H69.1111V277.4H67.1911V281.9H61.1511V277.4H59.2311V288ZM80.7444 277.4H71.0644V279.08H74.9444V288H76.8644V279.08H80.7444V277.4ZM82.7077 288H84.4677L90.9477 280.28V288H92.8677V277.4H91.1277L84.6277 285.12V277.4H82.7077V288ZM102.214 277.3C100.654 277.3 99.2944 277.9 98.4344 279.08V277.4H96.5944V291.88H98.5144V286.4C99.3944 287.54 100.714 288.12 102.214 288.12C105.314 288.12 107.574 285.96 107.574 282.7C107.574 279.46 105.314 277.3 102.214 277.3ZM102.054 286.44C100.034 286.44 98.4944 284.96 98.4944 282.7C98.4944 280.46 100.034 278.98 102.054 278.98C104.094 278.98 105.634 280.46 105.634 282.7C105.634 284.96 104.094 286.44 102.054 286.44ZM117.651 277.4L113.991 285.88L110.291 277.4H108.291L112.971 287.98L112.631 288.72C112.111 289.94 111.531 290.36 110.611 290.36C109.891 290.36 109.231 290.08 108.711 289.58L107.891 291.02C108.551 291.66 109.591 292 110.611 292C112.231 292 113.451 291.3 114.391 289.06L119.531 277.4H117.651ZM130.784 282.76C130.784 279.5 128.604 277.3 125.544 277.3C122.484 277.3 120.224 279.56 120.224 282.7C120.224 285.86 122.504 288.12 125.924 288.12C127.684 288.12 129.144 287.52 130.104 286.4L129.044 285.16C128.264 286.02 127.224 286.44 125.984 286.44C123.884 286.44 122.384 285.2 122.144 283.34H130.744C130.764 283.16 130.784 282.92 130.784 282.76ZM125.544 278.92C127.404 278.92 128.744 280.18 128.944 281.96H122.144C122.344 280.16 123.704 278.92 125.544 278.92ZM144.182 277.4L139.902 284.56L135.742 277.4H133.762V288H135.522V280.24L139.442 286.8H140.282L144.242 280.26V288H145.982V277.4H144.182Z" fill="white"/>
<path d="M8.12259 263.24C6.77859 263.24 5.57859 262.904 4.52259 262.232C3.46659 261.544 2.63459 260.552 2.02659 259.256C1.41859 257.944 1.11459 256.392 1.11459 254.6C1.11459 252.808 1.41859 251.264 2.02659 249.968C2.63459 248.656 3.46659 247.664 4.52259 246.992C5.57859 246.304 6.77859 245.96 8.12259 245.96C9.46659 245.96 10.6666 246.304 11.7226 246.992C12.7946 247.664 13.6346 248.656 14.2426 249.968C14.8506 251.264 15.1546 252.808 15.1546 254.6C15.1546 256.392 14.8506 257.944 14.2426 259.256C13.6346 260.552 12.7946 261.544 11.7226 262.232C10.6666 262.904 9.46659 263.24 8.12259 263.24ZM8.12259 260.528C9.32259 260.528 10.2666 260.032 10.9546 259.04C11.6586 258.048 12.0106 256.568 12.0106 254.6C12.0106 252.632 11.6586 251.152 10.9546 250.16C10.2666 249.168 9.32259 248.672 8.12259 248.672C6.93859 248.672 5.99459 249.168 5.29059 250.16C4.60259 251.152 4.25859 252.632 4.25859 254.6C4.25859 256.568 4.60259 258.048 5.29059 259.04C5.99459 260.032 6.93859 260.528 8.12259 260.528ZM24.1807 253.136C25.7327 253.328 26.9167 253.856 27.7327 254.72C28.5487 255.584 28.9567 256.664 28.9567 257.96C28.9567 258.936 28.7087 259.824 28.2127 260.624C27.7167 261.424 26.9647 262.064 25.9567 262.544C24.9647 263.008 23.7487 263.24 22.3087 263.24C21.1087 263.24 19.9487 263.072 18.8287 262.736C17.7247 262.384 16.7807 261.904 15.9967 261.296L17.3407 258.872C17.9487 259.384 18.6847 259.792 19.5487 260.096C20.4287 260.384 21.3327 260.528 22.2607 260.528C23.3647 260.528 24.2287 260.304 24.8527 259.856C25.4927 259.392 25.8127 258.768 25.8127 257.984C25.8127 257.2 25.5087 256.592 24.9007 256.16C24.3087 255.712 23.3967 255.488 22.1647 255.488H20.6287V253.352L24.4447 248.816H16.8127V246.2H28.2607V248.288L24.1807 253.136Z" fill="white"/>
<path d="M245.707 262.707C246.098 262.317 246.098 261.683 245.707 261.293L239.343 254.929C238.953 254.538 238.319 254.538 237.929 254.929C237.538 255.319 237.538 255.953 237.929 256.343L243.586 262L237.929 267.657C237.538 268.047 237.538 268.681 237.929 269.071C238.319 269.462 238.953 269.462 239.343 269.071L245.707 262.707ZM36 263L245 263L245 261L36 261L36 263Z" fill="white"/>
<path d="M38.1441 181.714C33.5669 181.714 29.0925 183.072 25.2867 185.615C21.4808 188.157 18.5146 191.772 16.7629 196.001C15.0113 200.23 14.553 204.883 15.446 209.372C16.3389 213.861 18.5431 217.985 21.7797 221.222C25.0163 224.458 29.1399 226.662 33.6292 227.555C38.1185 228.448 42.7717 227.99 47.0005 226.238C51.2293 224.487 54.8438 221.52 57.3867 217.715C59.9297 213.909 61.287 209.434 61.287 204.857C61.2809 198.721 58.8407 192.838 54.5019 188.499C50.1631 184.161 44.2801 181.72 38.1441 181.714ZM38.1441 216.429C35.8555 216.429 33.6183 215.75 31.7154 214.478C29.8125 213.207 28.3294 211.4 27.4535 209.285C26.5777 207.171 26.3486 204.844 26.7951 202.6C27.2415 200.355 28.3436 198.293 29.9619 196.675C31.5802 195.057 33.642 193.954 35.8867 193.508C38.1313 193.062 40.4579 193.291 42.5723 194.166C44.6867 195.042 46.494 196.525 47.7654 198.428C49.0369 200.331 49.7156 202.568 49.7156 204.857C49.7156 207.926 48.4964 210.869 46.3264 213.039C44.1563 215.209 41.2131 216.429 38.1441 216.429Z" fill="white"/>
<path d="M49.7156 14.0945V35.1429C49.7156 36.1659 49.3092 37.147 48.5859 37.8703C47.8625 38.5937 46.8814 39.0001 45.8584 39.0001H30.4299C29.4069 39.0001 28.4258 38.5937 27.7025 37.8703C26.9791 37.147 26.5727 36.1659 26.5727 35.1429V14.0945C23.0348 16.3523 20.121 19.4631 18.099 23.141C16.0771 26.8189 15.0119 30.9459 15.0013 35.1429C14.9688 38.1911 15.5452 41.2151 16.6967 44.0376C17.8482 46.8601 19.5517 49.4243 21.7072 51.5799C23.8627 53.7354 26.4269 55.4388 29.2494 56.5904C32.072 57.7419 35.096 58.3183 38.1442 58.2858C41.1924 58.3183 44.2164 57.7419 47.0389 56.5904C49.8614 55.4388 52.4256 53.7354 54.5811 51.5799C56.7366 49.4243 58.4401 46.8601 59.5916 44.0376C60.7431 41.2151 61.3195 38.1911 61.287 35.1429C61.2764 30.9459 60.2112 26.8189 58.1893 23.141C56.1674 19.4631 53.2536 16.3523 49.7156 14.0945Z" fill="white"/>
<path d="M45.8585 175.014V65.028C40.7972 66.3239 35.4911 66.3239 30.4299 65.028V175.014C35.4838 173.662 40.8045 173.662 45.8585 175.014Z" fill="white"/>
<path d="M227.144 135.428H204.001C202.978 135.428 201.997 135.835 201.274 136.558C200.551 137.282 200.144 138.263 200.144 139.286C200.144 140.309 200.551 141.29 201.274 142.013C201.997 142.736 202.978 143.143 204.001 143.143H227.144C228.167 143.143 229.148 142.736 229.872 142.013C230.595 141.29 231.001 140.309 231.001 139.286C231.001 138.263 230.595 137.282 229.872 136.558C229.148 135.835 228.167 135.428 227.144 135.428Z" fill="white"/>
<path d="M211.716 58.2858H219.43V127.714H211.716V58.2858Z" fill="white"/>
<path d="M226.878 42.0896L220.194 12H210.952L204.267 42.0896L209.922 50.5714H221.223L226.878 42.0896Z" fill="white"/>
<path d="M227.144 228C228.167 228 229.148 227.594 229.872 226.87C230.595 226.147 231.001 225.166 231.001 224.143V154.714C231.001 153.691 230.595 152.71 229.872 151.987C229.148 151.264 228.167 150.857 227.144 150.857H204.001C202.978 150.857 201.997 151.264 201.274 151.987C200.551 152.71 200.144 153.691 200.144 154.714V224.143C200.144 225.166 200.551 226.147 201.274 226.87C201.997 227.594 202.978 228 204.001 228H207.858V204.857H215.573V228H227.144Z" fill="white"/>
<path d="M111.43 19.7142H150.001V27.4285H111.43V19.7142Z" fill="white"/>
<path d="M130.716 204.857C132.846 204.857 134.573 203.13 134.573 201C134.573 198.87 132.846 197.143 130.716 197.143C128.585 197.143 126.858 198.87 126.858 201C126.858 203.13 128.585 204.857 130.716 204.857Z" fill="white"/>
<path d="M177.001 212.571V181.714H84.4299V212.571C84.4299 214.617 85.2426 216.579 86.6893 218.026C88.136 219.473 90.0982 220.286 92.1442 220.286H169.287C171.333 220.286 173.295 219.473 174.742 218.026C176.189 216.579 177.001 214.617 177.001 212.571ZM130.716 212.571C128.427 212.571 126.19 211.893 124.287 210.621C122.384 209.35 120.901 207.543 120.025 205.428C119.149 203.314 118.92 200.987 119.366 198.742C119.813 196.498 120.915 194.436 122.533 192.818C124.152 191.199 126.213 190.097 128.458 189.651C130.703 189.204 133.029 189.434 135.144 190.309C137.258 191.185 139.065 192.668 140.337 194.571C141.608 196.474 142.287 198.711 142.287 201C142.287 204.069 141.068 207.012 138.898 209.182C136.728 211.352 133.785 212.571 130.716 212.571Z" fill="white"/>
<path d="M177.001 27.4285C177.001 25.3826 176.189 23.4204 174.742 21.9737C173.295 20.527 171.333 19.7142 169.287 19.7142H157.716V31.2857C157.716 32.3086 157.309 33.2897 156.586 34.0131C155.862 34.7364 154.881 35.1428 153.858 35.1428H107.573C106.55 35.1428 105.569 34.7364 104.845 34.0131C104.122 33.2897 103.716 32.3086 103.716 31.2857V19.7142H92.1442C90.0982 19.7142 88.136 20.527 86.6893 21.9737C85.2426 23.4204 84.4299 25.3826 84.4299 27.4285V174H177.001V27.4285ZM118.014 126.584L112.56 121.13L143.417 90.2729L148.871 95.7269L118.014 126.584ZM118.014 107.298L112.56 101.844L143.417 70.9872L148.871 76.4412L118.014 107.298ZM153.858 50.5714H146.144V42.8571H153.858V50.5714ZM169.287 50.5714H161.573V42.8571H169.287V50.5714Z" fill="white"/>
</svg>
