<svg width="40" height="40" viewBox="0 0 40 40" fill="none" xmlns="http://www.w3.org/2000/svg">
<path d="M24.0886 23.6463C23.4637 23.6463 22.8733 23.9934 22.3179 24.6877V20.4946H20.5732V33.3334H22.3179V32.3955C22.8906 33.1077 23.4806 33.4635 24.0886 33.4635C24.8004 33.4635 25.2602 33.0993 25.4687 32.3699C25.59 32.0047 25.651 31.3718 25.651 30.4685V26.6662C25.651 25.7464 25.5899 25.1038 25.4687 24.7396C25.2602 24.0102 24.8004 23.6463 24.0886 23.6463ZM23.9324 30.599C23.9324 31.4505 23.6806 31.8746 23.177 31.8746C22.8818 31.8746 22.5954 31.736 22.3179 31.4586V25.6248C22.5954 25.3481 22.8818 25.2086 23.177 25.2086C23.6802 25.2086 23.9324 25.6428 23.9324 26.5108V30.599Z" fill="#6D6D6D"/>
<path d="M29.6092 23.646C28.724 23.646 28.0291 23.9766 27.5259 24.6358C27.1784 25.1036 27.0049 25.8515 27.0049 26.8748V30.235C27.0049 31.2592 27.1873 32.0049 27.552 32.4741C28.0552 33.1345 28.7585 33.4637 29.6614 33.4637C30.5816 33.4637 31.2759 33.1168 31.7447 32.4219C31.9532 32.1095 32.0833 31.7628 32.1355 31.3801C32.17 31.1379 32.1873 30.7635 32.1873 30.2598V30.0258H30.4165C30.4165 30.2169 30.4165 30.4032 30.4165 30.5851C30.4165 30.767 30.412 30.9104 30.4036 31.0154C30.3948 31.1189 30.3908 31.18 30.3908 31.1973C30.2868 31.6492 30.0261 31.8736 29.6096 31.8736C29.0191 31.8736 28.7244 31.431 28.7244 30.5463V28.8533H32.1877V26.8746C32.1877 25.8684 32.0054 25.1218 31.6411 24.6353C31.172 23.9766 30.4948 23.646 29.6092 23.646ZM30.4426 27.4219H28.7239V26.5357C28.7239 25.6506 29.0103 25.2083 29.5831 25.2083C30.1562 25.2083 30.4426 25.651 30.4426 26.5357V27.4219Z" fill="#6D6D6D"/>
<path d="M17.3435 31.0678C16.9616 31.606 16.5969 31.8746 16.2498 31.8746C16.0064 31.8746 15.8763 31.7445 15.8595 31.4838C15.8418 31.4502 15.8334 31.2236 15.8334 30.8075V23.7764H14.1148V31.3284C14.1148 31.9888 14.167 32.4566 14.271 32.7341C14.4273 33.2214 14.7919 33.4636 15.3647 33.4636C16.0069 33.4636 16.6668 33.0728 17.344 32.2916V33.3335H19.0887V23.7764H17.344V31.0678H17.3435Z" fill="#6D6D6D"/>
<path d="M19.6097 13.9585C20.1651 13.9585 20.4431 13.515 20.4431 12.6298V8.56678C20.4431 7.66431 20.1651 7.21289 19.6097 7.21289C19.0537 7.21289 18.7762 7.66431 18.7762 8.56678V12.6298C18.7762 13.515 19.0537 13.9585 19.6097 13.9585Z" fill="#6D6D6D"/>
<path d="M7.81268 22.3177H9.84378V33.3334H11.7709V22.3177H13.8541V20.4946H7.81268V22.3177Z" fill="#6D6D6D"/>
<path d="M32.5002 0H7.50026C5.43423 0 3.66783 0.73426 2.20061 2.2001C0.733392 3.66826 0 5.43423 0 7.50019V32.4998C0 34.5657 0.733392 36.3326 2.20061 37.7985C3.6674 39.2652 5.4338 40 7.50026 40H32.5002C34.5658 40 36.3322 39.2657 37.7994 37.7985C39.2661 36.3326 40 34.5658 40 32.4998V7.50019C40 5.43416 39.2662 3.66819 37.7994 2.2001C36.3322 0.73426 34.5658 0 32.5002 0ZM23.62 5.78115H25.3647V12.864C25.3647 13.2809 25.3735 13.507 25.3908 13.5416C25.408 13.8204 25.547 13.9585 25.8073 13.9585C26.1543 13.9585 26.519 13.6899 26.9009 13.1508V5.78115H28.6456V15.4164H26.9009V14.3746C26.1888 15.1558 25.5205 15.5466 24.8956 15.5466C24.3396 15.5466 23.9665 15.3125 23.7758 14.8437C23.6718 14.5313 23.6196 14.0541 23.6196 13.4115V5.78115H23.62ZM17.0311 8.90593C17.0311 7.8999 17.2134 7.14394 17.5781 6.64074C18.0468 5.98169 18.724 5.65105 19.6092 5.65105C20.4594 5.65105 21.1366 5.98169 21.6402 6.64074C22.0049 7.14437 22.1869 7.8999 22.1869 8.90593V12.2914C22.1869 13.3328 22.0046 14.0888 21.6402 14.5565C21.1365 15.2169 20.4594 15.5462 19.6092 15.5462C18.724 15.5462 18.0468 15.2165 17.5781 14.5565C17.2134 14.0542 17.0311 13.2991 17.0311 12.2914V8.90593ZM12.344 2.47412L13.7244 7.55204L15.0522 2.47412H17.0054L14.6618 10.1828V15.4165H12.7348V10.1828C12.5436 9.22768 12.1444 7.8565 11.5368 6.06804C11.4151 5.66927 11.215 5.06996 10.9375 4.27068C10.6595 3.47315 10.451 2.87383 10.3125 2.4742H12.344V2.47412ZM33.8024 33.9059C33.6284 34.6535 33.2592 35.2864 32.6954 35.8074C32.1311 36.3283 31.4756 36.6322 30.7294 36.7186C28.3508 36.9789 24.7742 37.1094 20.0004 37.1094C15.2256 37.1094 11.6495 36.9793 9.27144 36.7186C8.52474 36.6323 7.8693 36.3279 7.30543 35.8074C6.74112 35.2864 6.372 34.6539 6.19894 33.9059C5.85152 32.448 5.67802 30.1907 5.67802 27.1351C5.67802 24.1322 5.85152 21.8748 6.19894 20.3643C6.37244 19.6013 6.74155 18.9635 7.30543 18.4509C7.8693 17.9384 8.53363 17.6392 9.29754 17.5515C11.6583 17.2912 15.2262 17.1607 20.0008 17.1607C24.7924 17.1607 28.3686 17.2908 30.7298 17.5515C31.4764 17.6392 32.1363 17.9379 32.709 18.4509C33.2822 18.9634 33.6553 19.6012 33.8288 20.3643C34.1585 21.8058 34.3236 24.0622 34.3236 27.1351C34.3229 30.1907 34.1494 32.448 33.8024 33.9059Z" fill="#6D6D6D"/>
</svg>
